<svg width="19" height="9" viewBox="0 0 19 9" fill="none" xmlns="http://www.w3.org/2000/svg">
<path fill-rule="evenodd" clip-rule="evenodd" d="M1 4.5C1 4.22386 1.22386 4 1.5 4L17.5 4C17.7761 4 18 4.22386 18 4.5C18 4.77614 17.7761 5 17.5 5L1.5 5C1.22386 5 1 4.77614 1 4.5Z" fill="#1C00CC" stroke="#1C00CC" stroke-linecap="round"/>
<path fill-rule="evenodd" clip-rule="evenodd" d="M13.6464 0.646447C13.8417 0.451184 14.1583 0.451184 14.3536 0.646447L18.2071 4.5L14.3536 8.35355C14.1583 8.54882 13.8417 8.54882 13.6464 8.35355C13.4512 8.15829 13.4512 7.84171 13.6464 7.64645L16.7929 4.5L13.6464 1.35355C13.4512 1.15829 13.4512 0.841709 13.6464 0.646447Z" fill="#1C00CC" stroke="#1C00CC" stroke-linecap="round"/>
</svg>
