<svg width="19" height="9" viewBox="0 0 19 9" fill="none" xmlns="http://www.w3.org/2000/svg">
<path fill-rule="evenodd" clip-rule="evenodd" d="M18.2041 4.50049C18.2041 4.77663 17.9802 5.00048 17.7041 5.00046L1.7041 4.99959C1.42796 4.99957 1.20412 4.7757 1.20413 4.49956C1.20415 4.22342 1.42802 3.99957 1.70416 3.99959L17.7042 4.00046C17.9803 4.00048 18.2041 4.22435 18.2041 4.50049Z" fill="white"/>
<path fill-rule="evenodd" clip-rule="evenodd" d="M5.55766 8.35336C5.36239 8.54861 5.04581 8.5486 4.85056 8.35332L0.997215 4.49956L4.85098 0.646216C5.04625 0.450964 5.36283 0.450982 5.55808 0.646255C5.75334 0.841527 5.75332 1.15811 5.55805 1.35336L2.41143 4.49964L5.5577 7.64626C5.75295 7.84153 5.75294 8.15811 5.55766 8.35336Z" fill="white"/>
</svg>
