<svg width="276" height="276" viewBox="0 0 276 276" fill="none" xmlns="http://www.w3.org/2000/svg">
<g filter="url(#filter0_dii)">
<circle cx="138" cy="135" r="82" fill="#0108AF"/>
<circle cx="138" cy="135" r="82" fill="url(#paint0_radial)"/>
</g>
<path d="M86.5234 135H84.1094V130.07H79.5859V135H77.1641V123.578H79.5859V128.055H84.1094V123.578H86.5234V135ZM92.8438 127.797C92.3385 127.797 91.9427 127.958 91.6562 128.281C91.3698 128.599 91.2057 129.052 91.1641 129.641H94.5078C94.4974 129.052 94.3438 128.599 94.0469 128.281C93.75 127.958 93.349 127.797 92.8438 127.797ZM93.1797 135.156C91.7734 135.156 90.6745 134.768 89.8828 133.992C89.0911 133.216 88.6953 132.117 88.6953 130.695C88.6953 129.232 89.0599 128.102 89.7891 127.305C90.5234 126.503 91.5365 126.102 92.8281 126.102C94.0625 126.102 95.0234 126.453 95.7109 127.156C96.3984 127.859 96.7422 128.831 96.7422 130.07V131.227H91.1094C91.1354 131.904 91.3359 132.432 91.7109 132.812C92.0859 133.193 92.612 133.383 93.2891 133.383C93.8151 133.383 94.3125 133.328 94.7812 133.219C95.25 133.109 95.7396 132.935 96.25 132.695V134.539C95.8333 134.747 95.388 134.901 94.9141 135C94.4401 135.104 93.862 135.156 93.1797 135.156ZM105.062 126.219C106.521 126.339 107.664 126.789 108.492 127.57C109.32 128.352 109.734 129.372 109.734 130.633C109.734 131.919 109.326 132.951 108.508 133.727C107.69 134.497 106.542 134.943 105.062 135.062V138.844H102.852V135.062C101.378 134.927 100.224 134.466 99.3906 133.68C98.5625 132.888 98.1484 131.872 98.1484 130.633C98.1484 129.315 98.5495 128.276 99.3516 127.516C100.154 126.75 101.32 126.318 102.852 126.219V122.844H105.062V126.219ZM100.602 130.633C100.602 131.367 100.802 131.966 101.203 132.43C101.604 132.888 102.154 133.164 102.852 133.258V128.008C102.18 128.096 101.635 128.38 101.219 128.859C100.807 129.339 100.602 129.93 100.602 130.633ZM107.289 130.633C107.289 129.945 107.094 129.367 106.703 128.898C106.312 128.424 105.766 128.138 105.062 128.039V133.258C105.755 133.164 106.299 132.885 106.695 132.422C107.091 131.958 107.289 131.362 107.289 130.633ZM118.938 126.266V128.055H116.078V135H113.695V128.055H110.828V126.266H118.938ZM124.188 127.797C123.682 127.797 123.286 127.958 123 128.281C122.714 128.599 122.549 129.052 122.508 129.641H125.852C125.841 129.052 125.688 128.599 125.391 128.281C125.094 127.958 124.693 127.797 124.188 127.797ZM124.523 135.156C123.117 135.156 122.018 134.768 121.227 133.992C120.435 133.216 120.039 132.117 120.039 130.695C120.039 129.232 120.404 128.102 121.133 127.305C121.867 126.503 122.88 126.102 124.172 126.102C125.406 126.102 126.367 126.453 127.055 127.156C127.742 127.859 128.086 128.831 128.086 130.07V131.227H122.453C122.479 131.904 122.68 132.432 123.055 132.812C123.43 133.193 123.956 133.383 124.633 133.383C125.159 133.383 125.656 133.328 126.125 133.219C126.594 133.109 127.083 132.935 127.594 132.695V134.539C127.177 134.747 126.732 134.901 126.258 135C125.784 135.104 125.206 135.156 124.523 135.156ZM136.055 126.266V128.055H132.406V135H130.023V126.266H136.055ZM143.227 135L142.766 133.812H142.703C142.302 134.318 141.888 134.669 141.461 134.867C141.039 135.06 140.487 135.156 139.805 135.156C138.966 135.156 138.305 134.917 137.82 134.438C137.341 133.958 137.102 133.276 137.102 132.391C137.102 131.464 137.424 130.781 138.07 130.344C138.721 129.901 139.701 129.656 141.008 129.609L142.523 129.562V129.18C142.523 128.294 142.07 127.852 141.164 127.852C140.466 127.852 139.646 128.062 138.703 128.484L137.914 126.875C138.919 126.349 140.034 126.086 141.258 126.086C142.43 126.086 143.328 126.341 143.953 126.852C144.578 127.362 144.891 128.138 144.891 129.18V135H143.227ZM142.523 130.953L141.602 130.984C140.909 131.005 140.393 131.13 140.055 131.359C139.716 131.589 139.547 131.938 139.547 132.406C139.547 133.078 139.932 133.414 140.703 133.414C141.255 133.414 141.695 133.255 142.023 132.938C142.357 132.62 142.523 132.198 142.523 131.672V130.953ZM149.523 129.625C150.424 129.625 151.062 129.552 151.438 129.406C151.818 129.26 152.008 129.029 152.008 128.711C152.008 128.43 151.87 128.219 151.594 128.078C151.318 127.938 150.862 127.867 150.227 127.867C149.826 127.867 149.37 127.917 148.859 128.016C148.354 128.115 147.893 128.25 147.477 128.422L146.773 126.758C147.393 126.523 147.995 126.357 148.578 126.258C149.161 126.154 149.812 126.102 150.531 126.102C151.62 126.102 152.492 126.31 153.148 126.727C153.805 127.143 154.133 127.708 154.133 128.422C154.133 129.406 153.552 130.047 152.391 130.344V130.422C153.104 130.599 153.612 130.852 153.914 131.18C154.221 131.503 154.375 131.927 154.375 132.453C154.375 132.984 154.203 133.456 153.859 133.867C153.516 134.279 153.018 134.596 152.367 134.82C151.716 135.044 150.951 135.156 150.07 135.156C148.612 135.156 147.492 134.977 146.711 134.617V132.648C147.159 132.857 147.648 133.021 148.18 133.141C148.716 133.26 149.234 133.32 149.734 133.32C150.51 133.32 151.091 133.234 151.477 133.062C151.862 132.885 152.055 132.635 152.055 132.312C152.055 131.958 151.852 131.698 151.445 131.531C151.039 131.359 150.414 131.273 149.57 131.273H148.648V129.625H149.523ZM158.141 130.617C158.141 131.482 158.281 132.135 158.562 132.578C158.849 133.021 159.312 133.242 159.953 133.242C160.589 133.242 161.044 133.023 161.32 132.586C161.602 132.143 161.742 131.487 161.742 130.617C161.742 129.753 161.602 129.104 161.32 128.672C161.039 128.24 160.578 128.023 159.938 128.023C159.302 128.023 158.844 128.24 158.562 128.672C158.281 129.099 158.141 129.747 158.141 130.617ZM164.18 130.617C164.18 132.039 163.805 133.151 163.055 133.953C162.305 134.755 161.26 135.156 159.922 135.156C159.083 135.156 158.344 134.974 157.703 134.609C157.062 134.24 156.57 133.711 156.227 133.023C155.883 132.336 155.711 131.534 155.711 130.617C155.711 129.19 156.083 128.081 156.828 127.289C157.573 126.497 158.62 126.102 159.969 126.102C160.807 126.102 161.547 126.284 162.188 126.648C162.828 127.013 163.32 127.536 163.664 128.219C164.008 128.901 164.18 129.701 164.18 130.617ZM174.211 128.555C174.211 129.023 174.062 129.424 173.766 129.758C173.474 130.086 173.042 130.297 172.469 130.391V130.453C173.089 130.526 173.578 130.74 173.938 131.094C174.302 131.443 174.484 131.875 174.484 132.391C174.484 133.24 174.151 133.888 173.484 134.336C172.818 134.779 171.865 135 170.625 135H166.148V126.266H170.625C171.823 126.266 172.719 126.461 173.312 126.852C173.911 127.237 174.211 127.805 174.211 128.555ZM172.016 132.266C172.016 131.922 171.883 131.674 171.617 131.523C171.352 131.367 170.953 131.289 170.422 131.289H168.531V133.352H170.469C170.974 133.352 171.357 133.258 171.617 133.07C171.883 132.878 172.016 132.609 172.016 132.266ZM171.797 128.742C171.797 128.211 171.375 127.945 170.531 127.945H168.531V129.672H170.258C170.763 129.672 171.146 129.599 171.406 129.453C171.667 129.307 171.797 129.07 171.797 128.742ZM178.766 129.641H179.914C181.247 129.641 182.234 129.854 182.875 130.281C183.516 130.708 183.836 131.354 183.836 132.219C183.836 133.141 183.516 133.836 182.875 134.305C182.234 134.768 181.276 135 180 135H176.383V126.266H178.766V129.641ZM181.453 132.25C181.453 131.911 181.318 131.667 181.047 131.516C180.776 131.365 180.372 131.289 179.836 131.289H178.766V133.352H179.867C180.924 133.352 181.453 132.984 181.453 132.25ZM187.484 135H185.102V126.266H187.484V135ZM192.297 126.266V129.719C192.297 130.083 192.237 130.974 192.117 132.391L196.148 126.266H199.016V135H196.711V131.516C196.711 130.896 196.763 130.021 196.867 128.891L192.852 135H189.992V126.266H192.297ZM198.312 122.508C198.214 123.482 197.846 124.193 197.211 124.641C196.576 125.083 195.659 125.305 194.461 125.305C193.227 125.305 192.312 125.091 191.719 124.664C191.13 124.237 190.799 123.518 190.727 122.508H192.859C192.896 123.044 193.029 123.422 193.258 123.641C193.492 123.854 193.909 123.961 194.508 123.961C195.034 123.961 195.424 123.844 195.68 123.609C195.94 123.37 196.099 123.003 196.156 122.508H198.312ZM111.688 148.266H114.312L110.852 152.453L114.617 157H111.914L108.344 152.57V157H105.961V148.266H108.344V152.508L111.688 148.266ZM123.688 157H121.305V150.055H119.109C118.943 152.008 118.74 153.466 118.5 154.43C118.26 155.388 117.94 156.083 117.539 156.516C117.143 156.943 116.622 157.156 115.977 157.156C115.424 157.156 114.971 157.073 114.617 156.906V155C114.872 155.104 115.128 155.156 115.383 155.156C115.68 155.156 115.927 154.943 116.125 154.516C116.328 154.089 116.508 153.378 116.664 152.383C116.826 151.383 116.964 150.01 117.078 148.266H123.688V157ZM131.742 157L131.281 155.812H131.219C130.818 156.318 130.404 156.669 129.977 156.867C129.555 157.06 129.003 157.156 128.32 157.156C127.482 157.156 126.82 156.917 126.336 156.438C125.857 155.958 125.617 155.276 125.617 154.391C125.617 153.464 125.94 152.781 126.586 152.344C127.237 151.901 128.216 151.656 129.523 151.609L131.039 151.562V151.18C131.039 150.294 130.586 149.852 129.68 149.852C128.982 149.852 128.161 150.062 127.219 150.484L126.43 148.875C127.435 148.349 128.549 148.086 129.773 148.086C130.945 148.086 131.844 148.341 132.469 148.852C133.094 149.362 133.406 150.138 133.406 151.18V157H131.742ZM131.039 152.953L130.117 152.984C129.424 153.005 128.909 153.13 128.57 153.359C128.232 153.589 128.062 153.938 128.062 154.406C128.062 155.078 128.448 155.414 129.219 155.414C129.771 155.414 130.211 155.255 130.539 154.938C130.872 154.62 131.039 154.198 131.039 153.672V152.953ZM139.414 157.156C136.695 157.156 135.336 155.664 135.336 152.68C135.336 151.195 135.706 150.062 136.445 149.281C137.185 148.495 138.245 148.102 139.625 148.102C140.635 148.102 141.542 148.299 142.344 148.695L141.641 150.539C141.266 150.388 140.917 150.266 140.594 150.172C140.271 150.073 139.948 150.023 139.625 150.023C138.385 150.023 137.766 150.904 137.766 152.664C137.766 154.372 138.385 155.227 139.625 155.227C140.083 155.227 140.508 155.167 140.898 155.047C141.289 154.922 141.68 154.729 142.07 154.469V156.508C141.685 156.753 141.294 156.922 140.898 157.016C140.508 157.109 140.013 157.156 139.414 157.156ZM151.328 148.266V150.055H148.469V157H146.086V150.055H143.219V148.266H151.328ZM156.578 149.797C156.073 149.797 155.677 149.958 155.391 150.281C155.104 150.599 154.94 151.052 154.898 151.641H158.242C158.232 151.052 158.078 150.599 157.781 150.281C157.484 149.958 157.083 149.797 156.578 149.797ZM156.914 157.156C155.508 157.156 154.409 156.768 153.617 155.992C152.826 155.216 152.43 154.117 152.43 152.695C152.43 151.232 152.794 150.102 153.523 149.305C154.258 148.503 155.271 148.102 156.562 148.102C157.797 148.102 158.758 148.453 159.445 149.156C160.133 149.859 160.477 150.831 160.477 152.07V153.227H154.844C154.87 153.904 155.07 154.432 155.445 154.812C155.82 155.193 156.346 155.383 157.023 155.383C157.549 155.383 158.047 155.328 158.516 155.219C158.984 155.109 159.474 154.935 159.984 154.695V156.539C159.568 156.747 159.122 156.901 158.648 157C158.174 157.104 157.596 157.156 156.914 157.156ZM167.211 157.156C166.185 157.156 165.38 156.784 164.797 156.039H164.672C164.755 156.768 164.797 157.19 164.797 157.305V160.844H162.414V148.266H164.352L164.688 149.398H164.797C165.354 148.534 166.18 148.102 167.273 148.102C168.305 148.102 169.112 148.5 169.695 149.297C170.279 150.094 170.57 151.201 170.57 152.617C170.57 153.549 170.432 154.359 170.156 155.047C169.885 155.734 169.497 156.258 168.992 156.617C168.487 156.977 167.893 157.156 167.211 157.156ZM166.508 150.008C165.919 150.008 165.49 150.19 165.219 150.555C164.948 150.914 164.807 151.51 164.797 152.344V152.602C164.797 153.539 164.935 154.211 165.211 154.617C165.492 155.023 165.935 155.227 166.539 155.227C167.607 155.227 168.141 154.346 168.141 152.586C168.141 151.727 168.008 151.083 167.742 150.656C167.482 150.224 167.07 150.008 166.508 150.008Z" fill="#FAFAFA"/>
<defs>
<filter id="filter0_dii" x="0.273823" y="0.0601315" width="275.452" height="275.452" filterUnits="userSpaceOnUse" color-interpolation-filters="sRGB">
<feFlood flood-opacity="0" result="BackgroundImageFix"/>
<feColorMatrix in="SourceAlpha" type="matrix" values="0 0 0 0 0 0 0 0 0 0 0 0 0 0 0 0 0 0 127 0" result="hardAlpha"/>
<feOffset dy="2.78631"/>
<feGaussianBlur stdDeviation="27.8631"/>
<feColorMatrix type="matrix" values="0 0 0 0 0.0117647 0 0 0 0 0.854902 0 0 0 0 0.933333 0 0 0 0.28 0"/>
<feBlend mode="normal" in2="BackgroundImageFix" result="effect1_dropShadow"/>
<feBlend mode="normal" in="SourceGraphic" in2="effect1_dropShadow" result="shape"/>
<feColorMatrix in="SourceAlpha" type="matrix" values="0 0 0 0 0 0 0 0 0 0 0 0 0 0 0 0 0 0 127 0" result="hardAlpha"/>
<feOffset dx="6.96577" dy="13.9315"/>
<feGaussianBlur stdDeviation="34.8289"/>
<feComposite in2="hardAlpha" operator="arithmetic" k2="-1" k3="1"/>
<feColorMatrix type="matrix" values="0 0 0 0 0 0 0 0 0 0.819608 0 0 0 0 1 0 0 0 1 0"/>
<feBlend mode="normal" in2="shape" result="effect2_innerShadow"/>
<feColorMatrix in="SourceAlpha" type="matrix" values="0 0 0 0 0 0 0 0 0 0 0 0 0 0 0 0 0 0 127 0" result="hardAlpha"/>
<feOffset dy="1.39315"/>
<feGaussianBlur stdDeviation="3.48289"/>
<feComposite in2="hardAlpha" operator="arithmetic" k2="-1" k3="1"/>
<feColorMatrix type="matrix" values="0 0 0 0 1 0 0 0 0 1 0 0 0 0 1 0 0 0 0.58 0"/>
<feBlend mode="normal" in2="effect2_innerShadow" result="effect3_innerShadow"/>
</filter>
<radialGradient id="paint0_radial" cx="0" cy="0" r="1" gradientUnits="userSpaceOnUse" gradientTransform="translate(72.5 -58) rotate(83.1129) scale(321.931)">
<stop stop-color="#3244E8"/>
<stop offset="1" stop-color="#000210" stop-opacity="0"/>
</radialGradient>
</defs>
</svg>
