<svg width="64" height="108" viewBox="0 0 64 108" fill="none" xmlns="http://www.w3.org/2000/svg">
<g clip-path="url(#clip0)">
<path d="M32.1523 44.3396C32.575 44.8005 34.7582 47.2647 34.6314 51.0232C34.537 53.2757 33.6575 55.4192 32.1523 57.0653C32.8677 57.6557 33.3996 58.4466 33.6832 59.3414C34.2087 61.1492 33.1704 62.1875 33.1723 63.9708C33.1723 66.2093 34.8262 67.8233 36.8569 69.8342C37.8933 70.8538 41.4107 74.3188 43.8291 73.2428C44.0589 73.1389 44.2721 73 44.4613 72.8308C44.6457 72.8753 44.8183 72.9609 44.9667 73.0815C45.115 73.2022 45.2355 73.3549 45.3195 73.5287C45.454 73.8359 45.4671 74.1844 45.3563 74.5012C45.5829 74.3918 45.7844 74.2347 45.9478 74.0403C46.1112 73.8458 46.2327 73.6183 46.3045 73.3726C46.4198 72.9335 46.3672 72.466 46.1575 72.0652C46.4441 72.1628 46.6986 72.3399 46.8926 72.5769C47.1654 72.9279 47.294 73.3739 47.2509 73.8203C47.5834 73.5278 47.8258 73.1428 47.9487 72.7121C48.0717 72.2814 48.07 71.8234 47.9438 71.3937C48.0343 71.4039 48.1222 71.4314 48.2029 71.4745C48.7542 71.7755 48.7174 72.733 48.7138 72.7913C48.9313 72.662 49.1143 72.4798 49.2467 72.2608C49.3552 72.07 49.4256 71.859 49.454 71.6401C49.4824 71.4212 49.4682 71.1987 49.4121 70.9855C49.3202 70.6856 49.1631 70.411 48.9527 70.1822C48.3444 69.5295 46.4001 69.1457 43.8677 69.253C42.5819 68.7066 41.4 67.9329 40.3761 66.9674C39.5473 66.1792 38.8581 65.5246 38.4888 64.3922C38.0146 62.9381 38.3748 61.6326 38.5182 61.1322C38.9794 59.5352 39.7255 59.3753 40.5396 57.671C40.7234 57.2722 41.4732 55.6808 41.4456 53.8655C41.407 51.2489 39.7917 49.3791 38.8728 48.3181C36.5169 45.6093 33.5655 44.6763 32.1523 44.3396Z" fill="white"/>
<path d="M42.5466 30.9649C43.8541 28.3499 44.3778 25.3978 44.0517 22.4792C45.477 21.5524 46.6668 20.2923 47.5231 18.8026C48.3793 17.3129 48.8776 15.6362 48.9768 13.9108C48.7231 13.64 48.5338 13.3132 48.4233 12.9556C48.3128 12.5979 48.2841 12.2191 48.3395 11.8483C48.395 11.4775 48.533 11.1247 48.7429 10.8173C48.9528 10.5098 49.229 10.2559 49.5501 10.0752C49.4619 10.3705 49.1955 11.392 49.7339 12.2592C49.8218 12.4024 49.9267 12.5338 50.0463 12.6504C49.9859 12.307 50.0231 11.9531 50.1534 11.6306C50.2837 11.3082 50.5016 11.0308 50.7814 10.8314C51.1336 10.6124 51.552 10.5328 51.9576 10.6075C51.6014 11.0116 51.3811 11.5219 51.329 12.0635C51.301 12.3943 51.3378 12.7276 51.4375 13.0436C51.8381 12.2027 52.4923 11.708 52.9885 11.6572C53.2277 11.6376 53.4684 11.6612 53.6997 11.7268C53.8464 11.7716 53.9871 11.8348 54.1187 11.9149C53.7642 12.1202 53.4713 12.4207 53.2715 12.784C53.1119 13.0763 53.0183 13.4016 52.9977 13.7358C53.0602 13.6963 53.8357 13.2336 54.6112 13.623C54.9179 13.782 55.1671 14.037 55.3224 14.351C54.5463 14.4124 53.8047 14.7047 53.1888 15.1918C53.3211 16.7268 52.972 17.7012 52.6375 18.2994C52.2167 19.0631 51.8013 19.2531 51.1067 20.2877C50.6333 21.0023 50.2476 21.7737 49.9581 22.5846C49.4877 23.7621 48.374 25.5943 45.5256 28.416C45.7169 28.5199 45.8775 28.6745 45.9905 28.8637C46.0806 29.0174 46.1364 29.1895 46.1541 29.3678C45.1364 30.2627 43.877 30.8196 42.543 30.9649H42.5466Z" fill="white"/>
<path d="M38.6895 9.62757C39.2533 9.83245 39.7875 10.1147 40.2772 10.4665C41.242 11.1644 41.4056 11.6874 42.1921 11.9225C42.3759 11.9771 43.2121 12.2273 43.9361 11.7175C44.1566 11.5492 44.3413 11.3366 44.4787 11.0927C44.6162 10.8488 44.7035 10.5788 44.7355 10.2991C44.2863 10.5283 43.7868 10.6346 43.2856 10.6076C42.0341 10.5173 41.5434 9.52223 40.2497 9.3755C39.7171 9.32193 39.18 9.40871 38.6895 9.62757Z" fill="white"/>
<path d="M52.0952 32.5056C52.3366 32.1724 52.6514 31.9024 53.014 31.7174C53.4782 31.4822 53.9998 31.3926 54.5136 31.4597C54.1816 31.0703 53.7321 30.8055 53.2364 30.7072C52.4664 30.5887 52.1025 31.0646 51.1212 31.3035C50.8363 31.3731 50.6856 31.3788 48.4951 31.1926C46.1392 30.9932 46.0638 30.9668 45.6485 31.0044C45.2332 31.0421 45.0108 31.0835 43.0757 31.5462L40.7896 32.0936C42.1682 30.1479 43.0311 27.8699 43.2944 25.4815C43.4212 24.2494 43.6013 22.4849 42.7945 20.4815C42.5814 19.9529 41.5081 17.3062 38.9647 16.076C36.9194 15.0903 35.1791 15.6245 34.4054 14.2475C34.1516 13.7984 34.0697 13.2689 34.1757 12.7615C34.4458 11.725 35.6624 11.2773 36.0134 11.1475C37.7445 10.5117 39.3911 11.2265 39.5877 10.7092C39.6024 10.6504 39.605 10.5892 39.5955 10.5293C39.586 10.4694 39.5646 10.4122 39.5326 10.3612C39.336 10.0038 38.7387 10.0094 38.0147 10.0132C37.5754 10.0132 36.8569 10.0132 35.8094 10.0132C35.8316 9.75448 35.9377 9.51082 36.1108 9.32093C36.4361 8.99173 36.9212 9.00678 37.1638 9.01242C40.0729 9.09143 40.4717 8.93718 40.694 8.71897C40.9164 8.50076 41.0616 8.15464 40.9458 7.34012C41.1516 6.8548 41.0891 6.62154 41.0083 6.49927C40.7896 6.17383 40.2842 6.42214 39.3249 6.19076C38.8419 6.06727 38.3797 5.87005 37.954 5.60574C37.6357 5.41284 37.3328 5.19459 37.048 4.953C36.3423 4.38866 35.4088 3.6682 34.2584 3.21674C33.842 3.05318 33.4112 2.93097 32.972 2.8518C32.9573 2.39374 32.9026 1.93794 32.8084 1.48988C32.6375 0.669715 32.5291 0.146768 32.1873 0.0263768C31.8749 -0.0846085 31.5202 0.191915 30.9119 0.667835C30.5281 0.968144 30.1736 1.30581 29.8534 1.67611C29.6071 1.45414 29.3021 1.18514 28.9603 0.882281C28.2546 0.267159 28.0929 0.150529 27.8926 0.163697C27.6922 0.176865 27.4386 0.351809 26.9902 1.20019C26.4757 2.18025 25.9574 3.16406 25.9133 4.63697C25.8964 5.19456 25.9489 5.75209 26.0696 6.29611C25.416 7.34269 24.9203 8.48419 24.5994 9.6821C24.0242 11.8604 23.7265 15.4383 25.0092 18.7829C25.3767 19.746 26.0622 21.1663 26.0365 23.211C26.0297 23.7268 25.9793 24.241 25.8858 24.7479C26.0133 25.0097 26.2223 25.2206 26.4798 25.3473C26.7374 25.474 27.0288 25.5093 27.3082 25.4477C27.2382 26.4809 27.0273 27.4991 26.6815 28.4725C26.2515 29.667 25.7277 30.4664 23.4233 33.3765C21.1427 36.2565 20.1705 37.3494 19.5843 39.1684C19.2443 40.2256 19.112 40.9461 19.2664 41.8584C19.3252 42.2064 19.5034 42.9871 19.6229 44.1534C19.689 44.7911 19.678 44.9604 19.5677 45.1052C19.1543 45.6526 17.6712 45.3855 16.723 44.714C15.4641 43.8204 15.1885 42.2384 15.0819 41.5781C14.9367 40.6733 14.7787 38.5853 16.9417 34.6331C18.9631 30.9217 20.0658 31.0289 21.5929 27.9119C22.113 26.8528 23.302 24.4375 23.3718 21.4183C23.4839 16.5274 20.5877 12.8875 19.4318 11.5877L18.2005 12.6787C17.3945 11.3977 16.3486 10.2929 15.1232 9.42791C13.8978 8.56294 12.5172 7.95501 11.061 7.63922C11.9357 9.66517 12.7554 12.4962 12.4558 15.7882C12.1691 18.9409 10.9489 21.4785 10.4031 22.5921C8.89985 25.6602 7.42785 26.819 6.58985 30.1166C6.34308 31.0914 6.19103 32.0889 6.13593 33.0944L4.8238 32.5075C4.36159 34.7636 4.46536 37.1028 5.12544 39.3068C5.78551 41.5107 6.98037 43.5076 8.59846 45.1109L7.20364 45.615C7.59691 46.1793 9.85545 49.3245 14.0969 49.9829C16.6507 50.3581 19.2501 49.7603 21.4018 48.3031C22.085 49.5876 22.3979 51.0442 22.3041 52.5036C22.2416 53.3482 22.1203 55.1372 20.8615 56.2959C19.7589 57.3324 18.9595 56.753 17.9542 57.6277C16.6366 58.7733 16.7064 60.8858 16.8057 63.8448C16.8939 66.5423 16.9398 67.8929 17.7539 69.3282C18.886 71.326 21.3172 73.429 22.8683 72.9268C23.2358 72.8083 23.9709 72.4114 24.4487 72.7387C24.6252 72.873 24.7543 73.0625 24.8162 73.2786C24.8622 73.442 24.8747 73.6135 24.8529 73.7822C24.8311 73.9508 24.7754 74.113 24.6894 74.2586C25.091 74.1513 25.4428 73.9029 25.6836 73.557C25.8312 73.3251 25.9273 73.063 25.9651 72.7889C26.0029 72.5149 25.9815 72.2358 25.9023 71.9712C26.2093 72.0626 26.472 72.2679 26.6392 72.5468C26.7348 72.7222 26.7912 72.9171 26.8042 73.1175C26.8172 73.3179 26.7866 73.5188 26.7146 73.7056C26.9292 73.6377 27.1274 73.5244 27.2965 73.3731C27.4655 73.2218 27.6016 73.0357 27.6959 72.8271C27.7896 72.5993 27.8326 72.353 27.8218 72.106C27.811 71.8591 27.7466 71.6177 27.6334 71.3993C27.7864 71.4268 27.9324 71.4854 28.0629 71.5715C28.1934 71.6577 28.3057 71.7698 28.3933 71.9011C28.4808 72.0324 28.5418 72.1803 28.5725 72.3361C28.6033 72.4919 28.6033 72.6525 28.5725 72.8083C28.8858 72.5476 29.104 72.1864 29.1918 71.7831C29.3848 70.7936 28.5854 70.0318 28.4567 69.9151C27.887 69.3715 27.2071 69.2793 26.6705 69.206C25.5679 69.0555 25.362 69.4298 24.445 69.2812C23.6436 69.1503 22.9098 68.7435 22.3647 68.1281C21.7399 67.3756 21.6646 66.5404 21.5635 65.3986C21.4661 64.3038 21.3797 63.2918 21.7179 62.4509C22.4309 60.7071 24.524 60.8952 27.3265 59.5352C28.374 59.0273 32.2424 57.1499 33.4902 53.3388C33.674 52.7745 34.5928 49.7497 32.9793 46.9543C32.4233 46.0034 31.6589 45.1977 30.7465 44.6011C30.5803 43.7965 30.598 42.9634 30.798 42.1669C31.5772 39.176 34.7729 38.0962 35.0945 37.9928C34.4164 37.5413 31.5735 35.5473 31.4357 32.4755C31.4179 32.0728 31.4462 31.6694 31.5202 31.2734C31.8381 33.3038 32.8454 35.1542 34.365 36.4992C35.5138 37.4832 36.9001 38.1329 38.3785 38.3803C38.5585 37.9136 38.583 37.3992 38.4484 36.9168C39.0091 36.9187 39.5683 36.8556 40.1152 36.7287C42.7817 36.1549 44.7517 35.0357 45.3453 35.0357C45.8598 35.0357 46.3266 35.4627 47.8023 35.773C48.8296 35.9894 49.6216 36.0816 50.1913 36.0251C50.7545 36.519 51.1794 37.1571 51.4226 37.8742C51.5981 37.7082 51.7382 37.5067 51.834 37.2825C51.9298 37.0583 51.9793 36.8163 51.9793 36.5716C51.9793 36.3269 51.9298 36.0848 51.834 35.8607C51.7382 35.6365 51.5981 35.435 51.4226 35.2689C51.7693 35.2152 52.1236 35.2507 52.4535 35.3724C52.8687 35.5311 53.2257 35.8176 53.4753 36.1925C53.5636 35.9582 53.6027 35.7074 53.59 35.4565C53.5773 35.2057 53.5132 34.9604 53.4018 34.7366C53.2538 34.4658 53.0381 34.2401 52.7769 34.0828C52.5156 33.9254 52.2182 33.842 51.9151 33.8412C52.3043 33.6307 52.7447 33.5399 53.1832 33.5796C53.6217 33.6193 54.0397 33.7879 54.3868 34.065C54.4501 33.7131 54.3889 33.3496 54.214 33.0398C53.8575 32.4491 52.9791 32.1933 52.0952 32.5056ZM32.7202 5.83712C32.7331 5.71672 33.0308 5.78821 33.9166 5.48159C34.2841 5.35743 34.4844 5.25585 34.6682 5.36872C34.7402 5.4212 34.7988 5.49064 34.8391 5.57118C34.8794 5.65171 34.9002 5.74099 34.8997 5.83147C34.8987 5.98068 34.8459 6.12466 34.7509 6.23779C34.3245 6.73252 32.7037 6.1174 32.7202 5.83712Z" fill="white"/>
<path d="M12.4893 79.8267H13.7463V89.1739H12.4893V79.8267Z" fill="white"/>
<path d="M22.0453 84.8265V89.1738H20.8801V85.3269C20.8801 84.3374 20.0863 83.7016 18.8826 83.7016C17.6256 83.7016 16.7912 84.3525 16.7912 85.3532V89.1738H15.6133V82.272H16.7894V83.7769C17.008 83.2688 17.3694 82.839 17.8276 82.5421C18.2859 82.2453 18.8201 82.0949 19.3622 82.1102C20.9794 82.1027 22.0453 83.1862 22.0453 84.8265Z" fill="white"/>
<path d="M22.6592 82.272H23.8831L25.9211 87.3227H26.2004L28.2421 82.272H29.5929L26.9723 89.1794H25.2926L22.6592 82.272Z" fill="white"/>
<path d="M37.0152 86.2619H31.061C31.3128 87.1554 32.239 87.7668 33.4831 87.7668C34.3432 87.7668 35.1224 87.4959 35.534 87.131H36.9105C36.3591 88.4478 35.0562 89.3375 33.4427 89.3375C31.3643 89.3375 29.8169 87.78 29.8169 85.722C29.8169 83.6641 31.3642 82.1028 33.439 82.1028C35.5138 82.1028 37.052 83.6472 37.052 85.7465C37.0428 85.9101 37.0281 86.1133 37.0152 86.2619ZM31.061 85.1652H35.828C35.5634 84.2698 34.6115 83.6754 33.439 83.6754C32.2666 83.6754 31.3385 84.2698 31.061 85.1652Z" fill="white"/>
<path d="M37.9414 86.9391H39.1047C39.1047 87.4527 39.8857 87.8327 40.9846 87.8327C42.0836 87.8327 42.8371 87.5354 42.8371 87.1141C42.8371 86.6927 42.0303 86.4783 40.6796 86.3014C39.1984 86.1133 38.0609 85.4756 38.0609 84.2153C38.0609 82.8609 39.3693 82.1028 40.9589 82.1028C42.6643 82.1028 43.8993 83.0923 43.8993 84.4053H42.7213C42.7213 83.9463 41.9862 83.6058 40.9626 83.6058C39.939 83.6058 39.2407 83.8786 39.2407 84.2698C39.2407 84.6611 39.996 84.8793 41.3595 85.0693C42.8003 85.2574 44.0187 85.8424 44.0187 87.1385C44.0187 88.5324 42.6827 89.3319 40.9755 89.3319C39.2113 89.3357 37.9414 88.2917 37.9414 86.9391Z" fill="white"/>
<path d="M47.1759 83.8371V86.83C47.1759 87.3454 47.5067 87.5824 48.1554 87.5824H49.1478V89.1682H48.0359C46.6883 89.1682 46.0145 88.5042 46.0145 87.1761V83.8371H44.6123V82.2721H46.0145V80.564L47.1777 80.2405V82.2721H49.2801V83.8428L47.1759 83.8371Z" fill="white"/>
<path d="M-0.00732422 96.4594C-0.00732422 95.9591 0.415343 95.5659 0.997896 95.5659C1.58045 95.5659 1.99026 95.9591 1.99026 96.4594C1.99026 96.9598 1.56759 97.3398 0.997896 97.3398C0.428207 97.3398 -0.00732422 96.9617 -0.00732422 96.4594ZM0.402481 98.5287H1.58046V105.436H0.402481V98.5287Z" fill="white"/>
<path d="M9.76547 101.083V105.43H8.60037V101.58C8.60037 100.59 7.80647 99.9546 6.60277 99.9546C5.34578 99.9546 4.51147 100.605 4.51147 101.606V105.427H3.3335V98.5193H4.51147V100.024C4.73001 99.5161 5.09146 99.0863 5.54969 98.7894C6.00793 98.4926 6.54218 98.3422 7.08426 98.3575C8.6941 98.3556 9.76547 99.4391 9.76547 101.083Z" fill="white"/>
<path d="M21.3304 97.7329H18.3001V105.427H17.0431V97.7329H14.0127V96.0813H21.3304V97.7329Z" fill="white"/>
<path d="M28.4769 98.5193L24.864 108H23.3938L24.5699 105.427H24.173L21.5396 98.5193H22.78L24.8015 103.57H25.079L27.117 98.5193H28.4769Z" fill="white"/>
<path d="M35.5392 98.5193V105.427H34.3759V103.95C34.176 104.447 33.8338 104.871 33.3942 105.165C32.9547 105.459 32.4384 105.61 31.9134 105.598C30.3918 105.598 29.3608 104.543 29.3608 102.93V98.5287H30.5388V102.479C30.5388 103.401 31.2739 103.997 32.4041 103.997C33.582 103.997 34.3759 103.388 34.3759 102.453V98.5193H35.5392Z" fill="white"/>
<path d="M47.7733 100.895V105.419H46.6155V101.335C46.6155 100.509 45.9411 99.9544 44.9211 99.9544C43.8498 99.9544 43.1349 100.519 43.1349 101.363V105.427H41.9569V101.335C41.9569 100.509 41.2825 99.9544 40.2773 99.9544C39.1912 99.9544 38.4763 100.519 38.4763 101.363V105.427H37.2983V98.5191H38.4745V99.8735C38.9376 98.8972 39.7186 98.3555 40.7514 98.3555C41.8632 98.3555 42.6957 98.9781 43.0007 99.9807C43.4638 98.9386 44.2982 98.3555 45.41 98.3555C46.8397 98.3555 47.7733 99.3581 47.7733 100.895Z" fill="white"/>
<path d="M56.2266 102.515H50.2724C50.5224 103.408 51.4486 104.02 52.6927 104.02C53.5528 104.02 54.3338 103.749 54.7436 103.384H56.12C55.5687 104.701 54.2676 105.59 52.6541 105.59C50.5757 105.59 49.0283 104.033 49.0283 101.975C49.0283 99.9169 50.5757 98.3574 52.6394 98.3574C54.7031 98.3574 56.2523 99.9018 56.2523 102.001C56.2468 102.163 56.2266 102.366 56.2266 102.515ZM50.2724 101.418H55.0358C54.7712 100.523 53.8174 99.9281 52.6468 99.9281C51.4761 99.9281 50.5444 100.519 50.2669 101.418H50.2724Z" fill="white"/>
<path d="M63.9998 101.083V105.431H62.8421V101.58C62.8421 100.59 62.0482 99.9546 60.8426 99.9546C59.5856 99.9546 58.7532 100.605 58.7532 101.606V105.427H57.5752V98.5193H58.7532V100.024C58.9713 99.5159 59.3326 99.0857 59.791 98.7888C60.2493 98.4919 60.7838 98.3418 61.326 98.3576C62.9284 98.3557 63.9998 99.4392 63.9998 101.083Z" fill="white"/>
</g>
<defs>
<clipPath id="clip0">
<rect width="64" height="108" fill="white"/>
</clipPath>
</defs>
</svg>
