<svg width="101" height="162" viewBox="0 0 101 162" fill="none" xmlns="http://www.w3.org/2000/svg">
<path fill-rule="evenodd" clip-rule="evenodd" d="M42.192 1.70058C40.9779 3.14419 40.45 4.76117 40.4196 7.12806C40.3974 8.85169 40.3082 9.30508 39.7897 10.329C38.6921 12.4969 38.2765 14.5944 38.2802 17.9496C38.2839 21.3174 38.5428 22.8141 39.7665 26.5362C40.6714 29.2891 40.9043 30.7858 40.5767 31.7424C40.3797 32.3178 40.4156 32.4751 40.8365 32.8778C41.1055 33.1347 41.5547 33.3451 41.8351 33.3451C42.3169 33.3451 42.3378 33.4051 42.2165 34.4469C41.9405 36.8175 40.5537 39.313 37.1087 43.6373C32.6297 49.2591 31.9802 50.5198 31.9802 53.5895C31.9802 54.5443 32.0797 55.6764 32.2016 56.1052C32.5445 57.3128 32.535 58.5694 32.1812 58.7972C31.6443 59.1433 30.2437 59.0223 29.3379 58.552C27.0306 57.354 26.0224 54.0607 26.812 50.3025C27.4734 47.1551 28.6105 45.0182 31.7401 41.0428C35.0624 36.8229 36.6255 33.3797 36.9352 29.5984C37.1878 26.5168 36.4455 22.9863 34.8851 19.8461C34.2031 18.4741 32.3145 15.7183 32.056 15.7183C31.9769 15.7183 31.5744 15.9805 31.1616 16.3009L30.4112 16.8832L30.051 16.3567C28.322 13.8294 24.5012 11.2396 21.6432 10.6577L21.0504 10.5372L21.5674 11.8447C22.9333 15.3004 23.3253 21.5135 22.373 24.6129C21.7182 26.744 20.5366 29.2378 18.6055 32.5641C15.8902 37.241 14.6617 40.2443 14.6617 42.2053C14.6617 42.9173 14.3896 43.171 14.1136 42.7163C13.9547 42.4545 13.1271 42.4128 13.1271 42.6663C13.1271 42.7616 13.0232 43.6826 12.8963 44.713C12.3375 49.2491 13.8242 54.1232 16.7831 57.4569C17.5438 58.3139 17.5589 58.3623 17.1599 58.6698C16.9313 58.8461 16.6704 58.9933 16.5798 58.9971C16.2407 59.0118 16.4433 59.444 17.3908 60.7268C18.5443 62.2889 20.5118 63.7593 22.2735 64.3764C25.7172 65.5824 30.4145 65.156 33.6884 63.3402L34.6295 62.8181L34.8551 63.4214C35.4066 64.8963 35.7449 67.003 35.6506 68.3755C35.4531 71.2479 34.0547 73.2895 31.6652 74.1938C29.2971 75.0897 28.9508 75.8224 28.757 80.3434C28.6162 83.6346 28.9347 86.9161 29.5812 88.8281C30.2933 90.9346 32.1678 93.1163 34.1441 94.1382C34.8779 94.5175 35.8516 94.517 37.6271 94.1366C38.6114 93.9255 39.0744 94.3446 38.921 95.3074C38.7741 96.2284 39.0507 96.2438 39.916 95.3631C40.4849 94.7839 40.5651 94.5661 40.4579 93.8927C40.3345 93.1196 40.3426 93.1094 40.8144 93.4264C41.1342 93.6413 41.3201 94.0246 41.3651 94.5621C41.4427 95.487 41.5876 95.5456 42.3141 94.9468C42.7218 94.6108 42.8317 94.3033 42.8317 93.4965C42.8317 92.9335 42.8935 92.4728 42.9693 92.4728C43.2171 92.4728 43.6261 93.1011 43.7938 93.7395L43.9582 94.3651L44.3596 93.7415C45.1868 92.4567 44.6797 91.0319 43.1024 90.2092C42.3476 89.8156 41.764 89.7197 39.9818 89.6971C37.4831 89.6654 36.7116 89.3515 35.8503 88.0159C35.1142 86.8744 34.8277 85.8846 34.6814 83.9771C34.4377 80.8003 35.1534 79.8784 38.8964 78.5472C43.4165 76.9396 46.7222 74.8021 48.6588 72.2344C51.8239 68.0376 51.4927 62.3139 47.8768 58.7205C46.6915 57.5426 46.668 57.4948 46.668 56.2514C46.668 53.8802 48.2263 51.7021 50.9514 50.2641L52.3349 49.534L50.9959 48.3006C48.7024 46.1883 47.2376 43.2712 47.6574 41.6524C47.8071 41.0752 47.8369 41.1057 48.219 42.2263C49.5429 46.1104 52.7276 49.2582 55.8466 49.7658L56.7522 49.9133V49.0376V48.162L58.2763 47.8961C59.1144 47.7497 60.8162 47.27 62.0578 46.8298C65.4871 45.614 65.4556 45.6178 67.2185 46.2003C68.0788 46.4846 69.4546 46.7838 70.2758 46.865C71.9739 47.0328 72.5926 47.4505 72.9988 48.7035L73.255 49.4934L73.6856 48.9521C74.0278 48.5222 74.0966 48.1692 74.0208 47.237C73.9386 46.2293 73.9796 46.0631 74.3099 46.0631C74.5217 46.0631 74.988 46.3141 75.3462 46.6209C76.1562 47.3146 76.1865 47.3135 76.3241 46.5805C76.4936 45.6784 76.0429 44.9261 75.0616 44.4722L74.1804 44.0648L75.2074 44.0599C75.7724 44.0572 76.4875 44.153 76.7968 44.2725C77.3082 44.4705 77.3591 44.4392 77.3591 43.9278C77.3591 43.09 76.4423 42.27 75.5056 42.27C74.1001 42.27 74.8407 41.5857 76.6122 41.2474L77.4387 41.0895L76.8387 40.5642C76.0335 39.8594 74.7067 39.8654 73.4797 40.5796C72.6031 41.0897 72.4584 41.1058 70.4106 40.9194C66.9397 40.6039 65.4922 40.6718 63.0213 41.266C59.6661 42.0728 59.7001 42.0828 60.6044 40.5542C62.1249 37.9842 62.908 35.0314 62.9236 31.81C62.9354 29.3641 62.6511 27.9729 61.7718 26.1761C60.4464 23.4676 57.9917 21.5552 54.3544 20.3965C51.9252 19.623 51.0525 18.9335 51.0525 17.7885C51.0525 15.9832 52.5412 15.0407 55.7 14.8455C57.9512 14.7067 58.5705 14.4508 57.9417 13.9195C57.7061 13.7205 56.8149 13.5812 55.4113 13.5237C54.2196 13.475 53.2447 13.3588 53.2447 13.2653C53.2447 12.7128 54.1214 12.4763 56.558 12.3715C59.6135 12.2398 59.8113 12.12 59.9702 10.3033C60.098 8.84053 60.0125 8.75865 58.152 8.56141C57.1017 8.44984 56.5558 8.24033 55.6309 7.59327C54.9816 7.13899 53.8258 6.32839 53.0623 5.79222C52.299 5.25583 51.189 4.69066 50.5961 4.53581L49.5179 4.25468V3.30038C49.5179 2.21533 48.926 0.769043 48.4821 0.769043C48.0184 0.769043 46.6029 1.56403 46.1408 2.08413C45.6044 2.68768 45.5724 2.68322 44.5609 1.86346C43.0903 0.672207 43.0588 0.669976 42.192 1.70058ZM51.9294 7.79743C52.4193 8.39808 51.7849 8.8682 50.6583 8.73879C49.1867 8.57011 49.0538 8.22114 50.3113 7.82822C51.6735 7.4025 51.6084 7.40384 51.9294 7.79743ZM58.3274 13.4652C58.8791 13.8213 59.4015 14.2296 59.4881 14.3724C59.5749 14.5152 60.0454 14.9267 60.5338 15.2868C61.7742 16.2014 63.1064 16.2023 64.0034 15.2892C64.7571 14.5222 64.8983 13.7791 64.2203 14.1486C63.4799 14.5518 62.6048 14.4003 61.0396 13.598C59.906 13.0167 59.2378 12.8177 58.421 12.8177H57.324L58.3274 13.4652ZM70.5084 13.9581C69.557 14.505 69.1615 16.5968 69.7959 17.7264C70.2092 18.4621 70.2035 19.6959 69.7791 21.3629C68.9855 24.4797 67.6802 26.4983 65.1392 28.5381L63.9903 29.4607L63.8938 32.1282C63.7934 34.9047 63.3734 36.9391 62.4551 39.0972C62.1795 39.7454 61.9998 40.3224 62.0561 40.3795C62.2049 40.5312 64.4075 39.8348 65.3019 39.3533C66.7218 38.5891 66.7141 38.601 66.2816 37.856L65.8916 37.1839L67.2435 35.647C69.2764 33.3361 70.4084 31.7105 71.7939 29.1135C72.4836 27.8208 73.3649 26.3613 73.752 25.8704C74.7685 24.5823 75.3081 23.3815 75.6093 21.7371C75.9122 20.0824 76.3395 19.5757 77.6046 19.3697C78.5786 19.2111 78.6369 19.0786 77.9935 18.4862C77.6647 18.1836 77.2227 18.0658 76.459 18.0774C75.8688 18.0863 75.3861 18.0114 75.3861 17.9107C75.3861 17.8101 75.7296 17.3406 76.1494 16.8678C76.5692 16.3948 76.8487 15.9426 76.7705 15.8631C76.6924 15.7835 76.2371 15.7183 75.759 15.7183C75.0463 15.7183 74.7569 15.8618 74.1514 16.5151L73.4131 17.3119L73.4208 16.5709C73.4252 16.1634 73.5696 15.5789 73.7419 15.2721C74.1793 14.4934 74.1495 14.3796 73.5082 14.3796C72.6116 14.3796 72.1324 14.768 71.8516 15.7219C71.7078 16.2107 71.5114 16.6108 71.4153 16.6108C71.2389 16.6108 71.0532 15.7509 70.9491 14.449C70.9004 13.8425 70.8355 13.77 70.5084 13.9581ZM49.7371 59.339C52.5778 63.1588 52.5307 68.5772 49.6218 72.5987L48.657 73.9328L49.412 75.075C50.5364 76.7754 50.7307 77.7234 50.3931 79.8663C49.8253 83.4724 49.8419 83.8624 50.623 85.2782C51.5953 87.0404 52.3665 88.038 54.4316 90.205C57.9067 93.8515 61.7049 95.7857 63.5174 94.8319C63.884 94.6389 64.3299 94.4809 64.5081 94.4809C65.0018 94.4809 65.5211 95.1181 65.5211 95.7239C65.5211 96.4 65.807 96.4129 66.4055 95.7639C66.7595 95.3799 66.8514 95.0392 66.7959 94.3136C66.7562 93.7921 66.7983 93.3653 66.8897 93.3653C67.2637 93.3653 67.9326 94.2955 67.9326 94.8156C67.9326 95.1224 68.029 95.3734 68.1467 95.3734C68.5716 95.3734 69.0802 94.2361 69.0699 93.3086L69.0594 92.3612L69.4825 92.888C69.7153 93.1776 69.9056 93.6199 69.9056 93.8709C69.9056 94.3035 69.9268 94.3073 70.3188 93.9463C71.2777 93.063 70.9633 91.1557 69.7376 90.4201C68.9258 89.9332 66.8777 89.5722 64.9255 89.5722C63.0845 89.5722 62.0125 89.1295 60.0708 87.5674C58.615 86.396 56.8531 83.9682 56.5396 82.7013C56.1884 81.2814 56.6023 79.4888 57.769 77.3785C60.1186 73.128 60.3696 72.4524 60.3672 70.3836C60.3648 68.1519 59.9553 66.7629 58.7432 64.8753C57.0105 62.1762 54.0913 59.8504 50.8313 58.5707C49.8755 58.1957 48.9957 57.8886 48.876 57.8886C48.7566 57.8886 49.1439 58.5413 49.7371 59.339Z" fill="white"/>
<path d="M24.9434 131H22.0137V116.781H24.9434V131ZM30.0801 120.434L30.168 121.654C30.9232 120.71 31.9355 120.238 33.2051 120.238C34.3249 120.238 35.1582 120.567 35.7051 121.225C36.252 121.882 36.5319 122.865 36.5449 124.174V131H33.7227V124.242C33.7227 123.643 33.5924 123.21 33.332 122.943C33.0716 122.67 32.6387 122.533 32.0332 122.533C31.2389 122.533 30.6432 122.872 30.2461 123.549V131H27.4238V120.434H30.0801ZM42.6484 127.553L44.6113 120.434H47.5605L43.9961 131H41.3008L37.7363 120.434H40.6855L42.6484 127.553ZM53.5371 131.195C51.9876 131.195 50.7246 130.72 49.748 129.77C48.778 128.819 48.293 127.553 48.293 125.971V125.697C48.293 124.636 48.498 123.689 48.9082 122.855C49.3184 122.016 49.8978 121.371 50.6465 120.922C51.4017 120.466 52.2611 120.238 53.2246 120.238C54.6699 120.238 55.806 120.694 56.6328 121.605C57.4661 122.517 57.8828 123.809 57.8828 125.482V126.635H51.1543C51.2454 127.325 51.5189 127.878 51.9746 128.295C52.4368 128.712 53.0195 128.92 53.7227 128.92C54.8099 128.92 55.6595 128.526 56.2715 127.738L57.6582 129.291C57.235 129.89 56.6621 130.359 55.9395 130.697C55.2168 131.029 54.416 131.195 53.5371 131.195ZM53.2148 122.523C52.6549 122.523 52.1992 122.712 51.8477 123.09C51.5026 123.467 51.2812 124.008 51.1836 124.711H55.1094V124.486C55.0964 123.861 54.9271 123.38 54.6016 123.041C54.276 122.696 53.8138 122.523 53.2148 122.523ZM65.2168 128.08C65.2168 127.735 65.0443 127.465 64.6992 127.27C64.3607 127.068 63.8138 126.889 63.0586 126.732C60.5456 126.205 59.2891 125.137 59.2891 123.529C59.2891 122.592 59.6764 121.811 60.4512 121.186C61.2324 120.554 62.2513 120.238 63.5078 120.238C64.849 120.238 65.9199 120.554 66.7207 121.186C67.528 121.817 67.9316 122.637 67.9316 123.646H65.1094C65.1094 123.243 64.9792 122.911 64.7188 122.65C64.4583 122.383 64.0514 122.25 63.498 122.25C63.0228 122.25 62.6549 122.357 62.3945 122.572C62.1341 122.787 62.0039 123.061 62.0039 123.393C62.0039 123.705 62.1504 123.959 62.4434 124.154C62.7428 124.343 63.2441 124.509 63.9473 124.652C64.6504 124.789 65.2428 124.945 65.7246 125.121C67.2155 125.668 67.9609 126.615 67.9609 127.963C67.9609 128.926 67.5475 129.708 66.7207 130.307C65.8939 130.899 64.8262 131.195 63.5176 131.195C62.6322 131.195 61.8444 131.039 61.1543 130.727C60.4707 130.408 59.9336 129.975 59.543 129.428C59.1523 128.874 58.957 128.279 58.957 127.641H61.6328C61.6589 128.142 61.8444 128.526 62.1895 128.793C62.5345 129.06 62.9967 129.193 63.5762 129.193C64.1165 129.193 64.5234 129.092 64.7969 128.891C65.0768 128.682 65.2168 128.412 65.2168 128.08ZM73.166 117.836V120.434H74.9727V122.504H73.166V127.777C73.166 128.168 73.2409 128.448 73.3906 128.617C73.5404 128.786 73.8268 128.871 74.25 128.871C74.5625 128.871 74.8392 128.848 75.0801 128.803V130.941C74.5267 131.111 73.957 131.195 73.3711 131.195C71.3919 131.195 70.3828 130.196 70.3438 128.197V122.504H68.8008V120.434H70.3438V117.836H73.166ZM26.3887 143.154H22.0332V155H19.1035V143.154H14.8066V140.781H26.3887V143.154ZM31.0273 151.006L32.9805 144.434H36.0078L31.7598 156.641L31.5254 157.197C30.8939 158.577 29.8522 159.268 28.4004 159.268C27.9902 159.268 27.5736 159.206 27.1504 159.082V156.943L27.5801 156.953C28.1139 156.953 28.5111 156.872 28.7715 156.709C29.0384 156.546 29.2467 156.276 29.3965 155.898L29.7285 155.029L26.0273 144.434H29.0645L31.0273 151.006ZM43.4492 153.926C42.7526 154.772 41.7891 155.195 40.5586 155.195C39.4258 155.195 38.5599 154.87 37.9609 154.219C37.3685 153.568 37.0658 152.614 37.0527 151.357V144.434H39.875V151.26C39.875 152.36 40.3763 152.91 41.3789 152.91C42.3359 152.91 42.9935 152.578 43.3516 151.914V144.434H46.1836V155H43.5273L43.4492 153.926ZM50.959 144.434L51.0469 145.615C51.7956 144.697 52.8079 144.238 54.084 144.238C55.4447 144.238 56.3789 144.775 56.8867 145.85C57.6289 144.775 58.6868 144.238 60.0605 144.238C61.2064 144.238 62.0592 144.574 62.6191 145.244C63.179 145.908 63.459 146.911 63.459 148.252V155H60.627V148.262C60.627 147.663 60.5098 147.227 60.2754 146.953C60.041 146.673 59.6276 146.533 59.0352 146.533C58.1888 146.533 57.6029 146.937 57.2773 147.744L57.2871 155H54.4648V148.271C54.4648 147.66 54.3444 147.217 54.1035 146.943C53.8626 146.67 53.4525 146.533 52.873 146.533C52.0723 146.533 51.4928 146.865 51.1348 147.529V155H48.3125V144.434H50.959ZM70.5 155.195C68.9505 155.195 67.6875 154.72 66.7109 153.77C65.7409 152.819 65.2559 151.553 65.2559 149.971V149.697C65.2559 148.636 65.4609 147.689 65.8711 146.855C66.2812 146.016 66.8607 145.371 67.6094 144.922C68.3646 144.466 69.224 144.238 70.1875 144.238C71.6328 144.238 72.7689 144.694 73.5957 145.605C74.429 146.517 74.8457 147.809 74.8457 149.482V150.635H68.1172C68.2083 151.325 68.4818 151.878 68.9375 152.295C69.3997 152.712 69.9824 152.92 70.6855 152.92C71.7728 152.92 72.6224 152.526 73.2344 151.738L74.6211 153.291C74.1979 153.89 73.625 154.359 72.9023 154.697C72.1797 155.029 71.3789 155.195 70.5 155.195ZM70.1777 146.523C69.6178 146.523 69.1621 146.712 68.8105 147.09C68.4655 147.467 68.2441 148.008 68.1465 148.711H72.0723V148.486C72.0592 147.861 71.89 147.38 71.5645 147.041C71.2389 146.696 70.7767 146.523 70.1777 146.523ZM79.0547 144.434L79.1426 145.654C79.8978 144.71 80.9102 144.238 82.1797 144.238C83.2995 144.238 84.1328 144.567 84.6797 145.225C85.2266 145.882 85.5065 146.865 85.5195 148.174V155H82.6973V148.242C82.6973 147.643 82.5671 147.21 82.3066 146.943C82.0462 146.67 81.6133 146.533 81.0078 146.533C80.2135 146.533 79.6178 146.872 79.2207 147.549V155H76.3984V144.434H79.0547Z" fill="white"/>
</svg>
