<svg width="850" height="863" viewBox="0 0 850 863" fill="none" xmlns="http://www.w3.org/2000/svg">
<rect width="850" height="863" fill="#000B34"/>
<path fill-rule="evenodd" clip-rule="evenodd" d="M459.923 466.688V476.068L457.033 475.514L456.173 480.902L451.551 484.617H446.643L442.893 487.374L439.442 487.109L427.333 488.205L427.32 488.142L425.663 487.953L425.526 487.928L421.839 487.374L414.912 492.624L403.662 493.442L400.535 496.98L400.486 497.031L394.805 494.865L390.756 499.511L390.307 499.574L388.875 499.788L385.125 500.342L385.486 495.658L385.2 495.444L374.311 487.928L374.324 487.903L377.488 482.778L378.559 481.582L379.382 477.843L379.93 475.337L374.809 472.278L374.486 471.812L372.156 468.35L369.764 464.812L365.291 466.688L365.192 466.612L352.597 456.767H342.618L340.276 454.148L341.347 452.348L369.041 447.16L369.328 447.11L370.611 442.716L370.648 442.578L370.773 442.149L374.809 438.284C375.308 438.309 375.769 438.335 376.205 438.347L376.417 438.36C379.344 438.448 381.313 438.435 385.997 438.838C388.949 440.299 387.043 439.48 390.606 441.457L396.935 437.453V437.441L397.022 437.39L396.611 435.804V435.791L396.237 434.356L396.312 434.23V434.218L397.296 432.379L397.894 431.259L398.181 431.221L402.504 430.566L409.144 413.469L418.375 415.118L422.997 416.767L426.747 430.012L434.247 436.912L436.838 444.63L444.338 446.279L459.923 466.688Z" fill="#03DAEE" fill-opacity="0.3" stroke="#03DAEE" stroke-width="1.5" stroke-miterlimit="8"/>
<path fill-rule="evenodd" clip-rule="evenodd" d="M645 275.29L636.342 284.795L630.711 294.729L621.405 302.799L619.461 309.208L599.553 328.66L536.939 330.473L520.793 347.684L483.793 347.482L472.331 338.166L455.226 342.094L431.22 344.373L429.488 342.723C429.625 334.716 429.775 326.721 429.912 318.726L433.375 312.104L432.266 309.661L424.717 308.792L422.561 305.481L421.191 303.24L412.171 298.04L406.117 299.69L407.412 290.184L407.063 289.945L407.126 289.466L398.181 283.058L394.431 287.238L390.968 287.792L386.931 286.394L374.236 291.405L354.042 295.862L345.383 296.706L345.246 297.612L345.097 297.625L343.801 305.481L344.474 311.638L344.661 313.35L339.466 318.311L335.143 318.726L330.384 317.895L327.357 320.375L322.162 318.726L315.671 318.311L312.644 315.83H309.604L312.382 312.771L315.21 309.649L315.235 309.623V302.182L314.375 299.904L312.208 294.112L301.381 290.524L296.622 286.042L282.346 284.795L269.152 290.385L261.266 283.763L251.624 275.655V267.836L252.047 262.045L241.857 252.3L240.299 250.663L237.82 244.242L234.32 235.139L237.77 230.607L262.874 228.542L273.002 220.484L277.337 213.622L284.513 192.131L296.398 192.735L319.994 173.925L310.426 160.907L310.613 157.381L316.967 153L336.875 153.655L341.023 158.401C343.303 159.069 345.819 157.91 350.603 157.671C355.4 157.432 364.307 157.293 369.764 156.966L380.578 164.822L400.05 163.173L412.607 166.069L419.534 158.212L423.857 160.693L425.153 168.549L440.949 178.067L446.356 182.411L457.618 186.339L458.266 191.715L469.292 194.598L492.239 217.349C492.177 220.106 491.878 223.292 491.803 226.049L498.294 231.438L521.229 231.84L519.498 241.359L526.424 251.292L525.378 259.124L532.541 259.111L554.119 261.214L561.905 255.145L571.423 260.811H579.222L591.356 268.038L608.598 267.824L620.333 265.532L629.415 267.836L638.933 268.667L645 275.29Z" fill="#03DAEE" fill-opacity="0.3" stroke="#03DAEE" stroke-width="1.5" stroke-miterlimit="8"/>
<path fill-rule="evenodd" clip-rule="evenodd" d="M406.116 299.69L383.754 360.778L385.199 369.126L395.689 382.9L397.545 391.814L400.547 393.148L399.625 399.494L382.022 414.816L389.111 425.178L395.589 422.886L398.18 427.91V431.221L397.894 431.259L397.296 432.38L396.311 434.218V434.23L396.237 434.356L396.61 435.791V435.804L396.934 437.441V437.453L390.606 441.457C387.043 439.48 388.949 440.299 385.996 438.838C381.312 438.435 379.344 438.448 376.416 438.36L376.204 438.347L374.522 438.209L370.772 442.112L370.648 442.578L370.61 442.716L369.327 447.11L369.041 447.161L368.792 446.959L369.041 446.909L365.652 444.076L357.505 442.981L356.707 443.245H356.695L356.632 443.232L355.299 443.698L355.237 443.723L346.541 446.556L342.891 446.682H342.692L337.048 446.833L336.263 444.29V444.277L335.865 442.981L336.712 440.248L329.225 435.426L325.886 436.308L325.786 436.345L324.03 436.824L320.404 436.119H320.392L316.816 435.426L315.01 431.813L314.998 431.788L312.78 427.343L310.363 427.847L310.313 427.86L308.744 428.086L308.768 428.174L308.744 428.187L309.229 429.584L309.391 430.05L310.151 432.38L289.708 437.655L288.15 438.146L288.076 438.171L279.031 440.488L278.832 440.664L278.595 440.865L277.15 438.498L277.337 435.389V435.363L277.299 434.872L274.97 433.273L274.882 433.21L271.232 430.692L271.095 428.829V426.701L269.102 425.593L269.04 425.556L268.491 425.253L262.225 428.149L257.242 429.396L254.214 426.701L239.776 425.467L239.788 425.404L240.76 421.136L238.592 412.034L239.838 411.87L239.925 411.857L247.898 410.8L249.256 408.194L249.294 408.131L250.178 406.733L249.356 399.607L249.343 399.494L249.057 397.026V397.013L249.032 396.787L259.409 393.601L271.531 392.368L285.808 383.265L286.767 374.703L287.104 371.682L290.131 365.059L283.204 355.956V352.23L283.927 352.053L290.131 350.58L293.158 353.892L297.93 352.645V347.269L300.957 343.139L300.521 339.413L306.152 325.765L309.603 315.831H312.643L315.67 318.311L322.161 318.727L327.356 320.376L330.383 317.896L335.142 318.727L339.465 318.311L344.66 313.351L344.473 311.639L343.801 305.482L345.096 297.626L345.246 297.613L345.383 296.706L354.041 295.863L374.236 291.406L386.931 286.395L390.967 287.793L394.43 287.239L398.18 283.059L407.125 289.467L407.063 289.945L407.412 290.185L406.116 299.69Z" fill="#03DAEE" fill-opacity="0.3" stroke="#03DAEE" stroke-width="1.5" stroke-miterlimit="8"/>
<path fill-rule="evenodd" clip-rule="evenodd" d="M342.692 446.681L338.17 446.832L337.472 447.487L330.234 454.21L330.483 456.338L330.67 459.8L324.242 470.615L323.307 472.139L323.457 473.297V475.248L323.719 475.311L323.744 475.513L327.855 476.835L328.291 481.304L328.353 481.33L330.483 482.06L331.53 482.412H336.152V484.616L333.56 487.373L329.786 486.492L324.105 485.17L324.018 485.497L323.071 488.934L322.884 489.589L322.921 489.664L322.884 489.866L322.847 489.878L322.809 489.79L320.916 490.256L320.741 490.294L314.375 491.855L307.112 491.251L307.224 491.037L307.436 486.051L307.448 485.648L297.27 487.096L288.562 486.92L288.425 486.907L280.377 485.182L280.078 485.119L279.019 484.867V484.855L278.882 484.83L269.576 468.689L264.381 466.826L259.746 470.086L264.605 466.624C264.68 464.836 264.742 463.036 264.817 461.248L265.178 461.198L265.577 461.147L272.179 460.216L274.771 458.352L271.818 446.832L276.341 442.854L278.595 440.864L278.832 440.663L279.031 440.487L288.076 438.17L288.151 438.145L310.189 432.492L310.152 432.379L310.189 432.366L309.392 430.049L309.23 429.583L308.769 428.173L310.314 427.859L310.364 427.846L312.569 427.531L314.998 431.787L315.01 431.812L316.817 435.425L320.392 436.118H320.405L324.03 436.823L325.787 436.344L325.886 436.307L329.225 435.425L336.712 440.247L335.865 442.98L336.264 444.276V444.289L337.049 446.832L342.692 446.681Z" fill="#03DAEE" fill-opacity="0.3" stroke="#03DAEE" stroke-width="1.5" stroke-miterlimit="8"/>
<path fill-rule="evenodd" clip-rule="evenodd" d="M276.34 442.855L271.818 446.834L274.77 458.354L272.179 460.217L265.576 461.149L265.178 461.174V461.199L264.816 461.25C264.742 463.037 264.679 464.838 264.605 466.626L259.746 470.088L259.335 470.365L243.824 480.903L240.585 478.209L235.826 478.007L232.363 476.761L231.927 481.721L227.604 480.488L223.705 480.072L224.851 482.376L225.038 482.729L225.872 484.416L226.084 486.695L219.593 490.409L216.778 487.928L213.315 491.038L208.605 490.623L206.326 490.421L205.578 488.52L205.566 488.47L205.454 487.097L204.993 486.997V486.984L195.936 484.894L191.613 485.448L191.089 483.132L191.077 483.094L190.741 481.583L193.843 478.624L193.917 478.549L193.98 477.894L194.49 472.48L196.907 471.536L196.92 471.523L199.399 470.554L198.24 467.52L198.128 467.532L195.661 467.721L195.624 467.734L195.063 467.771L192.672 464.762L192.609 464.687L192.472 464.485L192.26 463.579V463.554L191.912 462.03H191.899V462.005L191.625 461.967L191.538 461.942L184.761 460.834L184.536 452.147L186.928 449.679L186.991 449.616L187.14 449.452L187.09 449.377L189.731 444.492L189.893 443.938L189.931 443.875L190.005 443.573L191.002 440.249L194.191 438.335L194.254 438.297L194.279 438.285L199.249 437.668L199.86 437.479L210.512 434.155L215.32 433.45L216.13 433.349L216.317 436.95V437.668H219.992L222.384 436.9L226.632 435.691L228.264 436.711L229.871 437.718L230.806 438.297L230.856 438.184L234.481 430.441H236.86L237.421 431.587L238.156 433.123L238.729 432.707L241.233 431.045L239.751 425.581L239.776 425.468L254.214 426.702L257.242 429.396L262.225 428.15L268.491 425.254L269.04 425.556L269.102 425.594L271.095 426.702V430.844L274.882 433.211L274.97 433.274L277.299 434.873L277.337 435.364V435.389L277.15 438.499L278.595 440.866L276.34 442.855Z" fill="#03DAEE" fill-opacity="0.3" stroke="#03DAEE" stroke-width="1.5" stroke-miterlimit="8"/>
<path fill-rule="evenodd" clip-rule="evenodd" d="M307.448 485.649L307.436 486.052L307.224 491.037L307.112 491.251L306.576 492.296L305.38 495.154L304.894 496.854L306.576 511.723L304.196 514.203L303.76 516.067L299.873 519.995H293.819L291.215 523.306L293.595 527.65L291.701 528.632L291.215 528.884H287.104L285.16 532.409L288.213 535.531L290.879 538.264L287.104 540.051L283.429 538.817L283.591 540.064L284.077 543.778L283.429 546.258H283.229L276.938 546.057L273.911 549.154L273.263 552.679L269.139 552.264L259.198 547.706L253.479 547.517L253.031 546.51V546.498L252.969 545.868L252.994 545.843L252.956 545.792L250.315 542.267V542.179L250.103 541.915V538.817L252.483 537.156L252.047 533.026H252.034L246.142 527.373H246.042L246.054 527.26L246.864 518.749L248.77 516.004L246.74 512.113L246.727 512.088L245.681 510.112L245.556 509.86L247.724 507.38L245.78 503.237L246.428 498.063L248.434 495.368L248.446 495.343L248.484 495.305L249.455 493.719L247.674 493.215L247.574 493.19H247.562L245.556 492.687L244.472 490.622L248.583 487.726L248.16 484.83L240.797 478.409L243.824 480.902L259.335 470.364L259.746 470.087L264.38 466.826L269.575 468.69L278.882 484.83L279.019 484.855V484.868L280.078 485.12L280.377 485.183L287.54 486.895L288.424 486.908L288.561 486.92L297.27 487.097L307.448 485.649Z" fill="#03DAEE" fill-opacity="0.3" stroke="#03DAEE" stroke-width="1.5" stroke-miterlimit="8"/>
<path fill-rule="evenodd" clip-rule="evenodd" d="M418.885 507.379L410.663 509.028L418.486 519.365L410.663 527.234L417.577 545.44L412.818 553.296L414.774 559.289L397.893 565.08L393.558 562.185L383.604 565.496L366.91 557.917L366.947 557.841L367.595 556.569L367.607 556.532L370.622 552.049L370.411 549.154L357.429 534.675L363.484 523.709L363.459 523.356L363.484 523.306L363.434 522.928V522.89L363.422 522.827L363.048 517.099L358.077 513.171L359.597 508.613H363.272L368.467 504.483L368.729 499.435L368.754 498.956H371.058L374.048 501.336L374.111 501.386L376.253 503.098L376.453 503.035H376.465L385.124 500.341L388.873 499.787L390.306 499.573L390.755 499.51L394.803 494.864L400.484 497.03L400.534 496.979L403.661 493.442L414.911 492.623L421.837 487.373L425.525 487.927L425.662 487.952L427.319 488.204H427.331L429.051 498.062L418.885 507.379Z" fill="#03DAEE" fill-opacity="0.3" stroke="#03DAEE" stroke-width="1.5" stroke-miterlimit="8"/>
<path fill-rule="evenodd" clip-rule="evenodd" d="M385.486 495.656L385.124 500.34L376.466 503.034H376.453L374.111 501.385L374.049 501.335L371.059 498.955H368.754L368.729 499.433L368.468 504.482L363.273 508.612H359.598L358.078 513.169L363.048 517.098L363.422 522.826L363.435 522.889V522.927L363.46 523.355L363.485 523.708L357.43 534.674L370.411 549.152L370.623 552.048L367.608 556.53L367.596 556.568L366.948 557.84L366.911 557.915L365.802 559.892L365.44 560.534L362.401 563.43L362.388 563.493L362.376 563.556L362.114 567.912L355.511 568.189H355.486L349.855 574.597H349.843L349.208 574.396L345.956 573.364L344.449 571.916L343.577 570.669L331.667 569.473L331.592 569.461L323.021 568.605L319.134 569.637L316.144 574.119L312.855 568.806L308.096 565.079L303.038 565.86L302.602 565.923L301.344 566.074L292.299 553.496L284.376 551.859L284.151 551.192L283.205 546.672L283.23 546.257H283.429L284.077 543.776L283.591 540.062L283.429 538.816L287.104 540.05L290.879 538.262L291.003 538.199L288.213 535.53L285.161 532.407L287.104 528.882H291.215L291.701 528.63L293.595 527.648L291.215 523.305L293.819 519.993H298.503L299.874 520.195L303.549 516.468L303.611 516.216L303.76 516.065L304.196 514.202L306.576 511.722L304.894 496.852L305.38 495.153L306.576 492.295L307.112 491.25L314.375 491.854L320.741 490.293L320.915 490.255L322.809 489.789L322.846 489.877L322.884 489.865L322.921 489.663L322.884 489.588L323.07 488.933L324.017 485.496L324.105 485.169L329.785 486.491L333.56 487.372L336.151 484.615V482.411H331.53L330.483 482.059L328.353 481.329L328.29 481.303L327.854 476.834L323.743 475.512L323.718 475.31L323.457 475.247V473.296L323.307 472.138L324.242 470.614L330.882 459.799L330.483 456.337L330.234 454.209L337.472 447.486L338.17 446.831L342.692 446.68H342.891L346.542 446.554L355.237 443.721L355.3 443.696L356.695 443.243H356.707L357.505 442.979L365.652 444.074L369.041 446.907L368.792 446.957L369.041 447.159L341.346 452.346L340.275 454.146L342.617 456.765H352.596L365.191 466.611L365.291 466.686L369.763 464.81L372.155 468.348L374.485 471.81L374.809 472.276L379.929 475.336L379.381 477.841L378.559 481.58L377.487 482.776L374.323 487.901L374.311 487.926L385.199 495.442L385.486 495.656Z" fill="#03DAEE" fill-opacity="0.3"/>
<path d="M359.598 508.612H363.273L368.468 504.482L368.729 499.433L368.754 498.955H371.059L374.049 501.335L374.111 501.385L376.453 503.034H376.466L385.124 500.34L385.486 495.656L385.199 495.442L374.311 487.926L374.323 487.901L377.487 482.776L378.559 481.58L379.381 477.841L379.929 475.336L374.809 472.276L374.485 471.81L372.155 468.348L369.763 464.81L365.291 466.686L365.191 466.611L352.596 456.765H342.617L340.275 454.146L341.346 452.346L369.041 447.159L368.792 446.957L369.041 446.907L365.652 444.074L357.505 442.979L356.707 443.243H356.695L355.3 443.696L355.237 443.721L346.542 446.554L342.891 446.68H342.692L338.17 446.831L337.472 447.486L330.234 454.209L330.483 456.337L330.882 459.799L324.242 470.614L323.307 472.138L323.457 473.296V475.247L323.718 475.31L323.743 475.512L327.854 476.834L328.29 481.303L328.353 481.329L330.483 482.059L331.53 482.411H336.151V484.615L333.56 487.372L329.785 486.491M359.598 508.612L358.078 513.169L363.048 517.098L363.422 522.826L363.435 522.889V522.927L363.46 523.355L363.485 523.708L357.43 534.674L370.411 549.152L370.623 552.048L367.608 556.53L367.596 556.568L366.948 557.84L366.911 557.915L365.802 559.892L365.44 560.534L362.401 563.43L362.388 563.493L362.376 563.556L362.114 567.912L355.511 568.189H355.486L349.855 574.597H349.843L349.208 574.396L345.956 573.364L344.449 571.916L343.577 570.669L331.667 569.473L331.592 569.461L323.021 568.605L319.134 569.637L316.144 574.119L312.855 568.806L308.096 565.079L303.038 565.86L302.602 565.923L301.344 566.074L292.299 553.496L284.376 551.859L284.151 551.192L283.205 546.672L283.23 546.257H283.429L284.077 543.776L283.591 540.062L283.429 538.816L287.104 540.05L290.879 538.262L291.003 538.199L288.213 535.53L285.161 532.407L287.104 528.882H291.215L291.701 528.63L293.595 527.648L291.215 523.305L293.819 519.993H298.503L299.874 520.195L303.549 516.468L303.611 516.216L303.76 516.065L304.196 514.202L306.576 511.722L304.894 496.852L305.38 495.153L306.576 492.295L307.112 491.25L314.375 491.854L320.741 490.293L320.915 490.255L322.809 489.789L322.846 489.877L322.884 489.865L322.921 489.663L322.884 489.588L323.07 488.933L324.017 485.496L324.105 485.169L329.785 486.491M359.598 508.612H349.855L346.542 504.482L345.956 495.442L333.56 495.656L329.785 486.491" stroke="#03DAEE" stroke-width="1.5" stroke-miterlimit="8"/>
<path fill-rule="evenodd" clip-rule="evenodd" d="M408.857 590.802L410.302 595.838L408.346 602.322L392.412 611.211L395.004 619.76L390.108 633.282L377.413 640.999L371.931 634.377L359.523 631.897L354.328 621.975L348.56 619.206L342.493 620.314V614.245L345.707 608.907L347.974 605.142L348.024 604.55L348.336 603.971L348.772 598.394L351.438 593.282L351.55 590.613L351.737 586.118L351.375 579.773L349.855 574.598L355.511 568.19L362.114 567.913L362.376 563.556L362.388 563.494L362.401 563.431L365.441 560.535L365.802 559.893L366.911 557.916L383.604 565.495L393.558 562.184L397.894 565.08L394.144 570.393L412.034 568.744L399.04 575.354L397.308 586.672L401.93 591.633L408.857 590.802Z" fill="#03DAEE" fill-opacity="0.3" stroke="#03DAEE" stroke-width="1.5" stroke-miterlimit="8"/>
<path fill-rule="evenodd" clip-rule="evenodd" d="M351.737 586.118L351.55 590.613L351.438 593.282L348.772 598.394L348.336 603.972L348.024 604.551L347.974 605.142L345.707 608.907L342.493 614.245V620.314L332.551 621.346L329.3 616.801L324.329 621.56L316.966 620.729V615.97L310.264 610.795L302.465 612.659V625.904L292.087 619.898L288.636 621.409L288.661 620.691L288.836 620.931C288.761 615.693 289.558 610.254 289.483 605.004L286.244 600.874L288.312 599.88L288.337 599.867L289.708 599.212L290.779 598.394L291.165 598.104L300.31 591.356L299.039 588.032L299.014 587.944L297.706 584.532L298.927 583.046L300.085 581.636L298.578 576.663L297.93 570.255L300.957 566.125L301.344 566.075L301.381 566.125L302.602 565.924L303.038 565.861L308.096 565.08L312.855 568.807L316.144 574.12L319.134 569.638L323.021 568.605L331.592 569.462L331.667 569.474L343.577 570.67L344.449 571.917L345.956 573.365L349.208 574.397L349.843 574.598H349.855L351.375 579.773L351.737 586.118Z" fill="#03DAEE" fill-opacity="0.3" stroke="#03DAEE" stroke-width="1.5" stroke-miterlimit="8"/>
<path fill-rule="evenodd" clip-rule="evenodd" d="M300.957 566.126L297.929 570.255L298.577 576.664L300.085 581.637L298.926 583.047L297.705 584.533L299.013 587.944L299.038 588.033L300.309 591.356L291.165 598.105L290.778 598.394L289.707 599.213L288.337 599.868L288.312 599.88L286.244 600.875L289.483 605.004C289.558 610.254 288.76 615.693 288.835 620.931L288.661 620.692L282.992 612.873L275.642 612.659L273.474 608.114L265.252 602.738L262 596.733L257.465 595.083L254.276 582.883L254.426 582.808C254.363 579.585 254.289 576.374 254.214 573.151V571.917L253.043 569.978L255.086 568.467L255.049 568.115L254.787 565.433L253.205 563.494L253.043 562.751L251.112 554.051L251.025 553.989L250.975 553.712L247.075 550.602L252.918 546.258L253.03 546.497V546.51L253.479 547.517L253.566 547.706H259.197L269.139 552.264L273.262 552.679L273.91 549.154L276.937 546.057L283.229 546.258L283.204 546.674L284.151 551.193L284.288 551.848L284.375 551.861L284.512 552.264L292.298 553.498L301.343 566.075L300.957 566.126Z" fill="#03DAEE" fill-opacity="0.3" stroke="#03DAEE" stroke-width="1.5" stroke-miterlimit="8"/>
<path fill-rule="evenodd" clip-rule="evenodd" d="M254.215 582.669L254.277 582.883L249.02 585.565L244.411 587.768H237.484L234.419 582.253L220.753 584.734L220.167 581.145L209.503 579.773L204.021 561.29L188.723 556.053C188.735 555.839 188.76 555.574 188.798 555.285L188.835 554.97L188.872 554.618C189.022 553.371 189.259 551.747 189.321 550.387V550.337L189.882 545.024L189.969 544.596L189.981 544.57L190.741 542.543L191.613 537.57L190.766 535.619L190.754 535.594L190.168 534.259L190.18 534.246L194.79 529.852L195.4 528.342L195.438 528.253L197.095 524.892H199.399L199.387 524.779L207.011 524.426L208.917 524.35L209.204 524.338L209.553 526.302L209.864 528.065L210.774 527.926L213.975 527.435L215.234 526.705L216.99 525.698L217.215 525.572L219.382 527.851L219.009 529.827L217.862 537.293L216.529 539.308L214.399 543.362L214.598 545.024H220.167L220.366 544.822L220.466 544.81L224.789 540.466L225.387 540.655L228.826 542.543L229.112 540.605L230.271 536.475L236.039 538.401L238.929 540.605L239.041 540.252L239.066 540.265L239.141 539.937L240.374 535.921L239.216 529.852L240.91 528.732L242.965 527.372H246.142L252.035 533.025H252.047L252.483 537.155L250.104 538.817V541.914L250.316 542.178V542.266L252.957 545.792L252.969 545.867L253.032 546.497L252.919 546.258L247.077 550.601L250.976 553.711L251.026 553.988L251.113 554.051L253.044 562.751L253.206 563.494L254.788 565.433L255.05 568.114L255.087 568.467L253.044 569.978L254.215 571.917V582.669Z" fill="#03DAEE" fill-opacity="0.3" stroke="#03DAEE" stroke-width="1.5" stroke-miterlimit="8"/>
<path fill-rule="evenodd" clip-rule="evenodd" d="M246.74 512.113L248.77 516.004L246.864 518.748L246.054 527.259L245.22 527.373H242.965L240.909 528.733L239.215 529.853L240.373 535.922L239.14 539.938L239.04 540.253L238.928 540.605L236.038 538.402L230.27 536.476L229.111 540.605L228.825 542.544L225.386 540.656L224.788 540.328L220.366 544.823L217.451 545.024H214.598L214.398 543.362L216.529 539.308L217.862 537.294L219.008 529.828L219.382 527.851L217.214 525.572L216.99 525.698L215.233 526.705L213.975 527.436L210.773 527.927L209.864 528.065L209.552 526.303L209.203 524.339L208.917 524.351V524.339L207.011 524.427L199.386 524.729L199.112 519.365L199.025 519.252C199.025 519.088 199.025 518.912 199.038 518.748L196.222 515.437L195.936 505.226V500.341L200.894 495.469L201.081 495.293L201.342 495.041L206.326 490.42L208.605 490.622L213.315 491.037L216.778 487.927L219.593 490.408L226.084 486.693L225.872 484.415L225.038 482.728L224.851 482.375L223.705 480.071L227.604 480.486L231.927 481.72L232.363 476.76L235.826 478.006L240.797 478.409L248.16 484.83L248.583 487.726L244.472 490.622L245.556 492.686L247.562 493.19H247.574L247.674 493.215L249.455 493.719L248.484 495.305L248.446 495.343L248.434 495.368L246.428 498.063L245.78 503.237L247.724 507.379L245.556 509.86L245.681 510.111L245.556 510.275L246.727 512.088L246.74 512.113Z" fill="#03DAEE" fill-opacity="0.3" stroke="#03DAEE" stroke-width="1.5" stroke-miterlimit="8"/>
<path fill-rule="evenodd" clip-rule="evenodd" d="M191.613 537.57L190.741 542.543L189.981 544.57L189.968 544.595L189.881 545.023L189.32 550.336V550.387L188.872 554.617L188.834 554.97L188.797 555.284C188.76 555.574 188.735 555.838 188.722 556.052L174.296 554.126L169.101 549.43L155.833 554.403L139.974 543.915L135.352 551.369L121.212 548.876L110.834 525.71L110.535 522.134C110.922 517.161 111.021 513.308 111.121 509.443L114.285 510.815L114.796 510.387L118.571 507.152L118.583 507.139H118.596L119.767 506.132L119.705 505.918L119.767 505.855L118.683 501.675L120.527 500.164L124.102 503.098L128.948 501.184L128.998 501.171L128.861 500.693L128.998 500.617L129.808 502.015L129.821 502.027L130.443 503.098L134.106 502.947L137.906 505.364L136.872 507.152L136.797 507.24L136.809 507.265L136.51 507.781L139.102 510.538V510.551L139.7 510.161L148.42 504.608L148.981 505.515L149.89 506.963L150.065 507.24L154.687 506.963H154.973L159.869 511.923L159.296 515.512L159.321 515.537L161.028 517.161V519.918L154.973 521.857L154.699 525.068L155.995 525.785L159.296 527.372L165.214 525.307L171.132 522.953L174.396 525.181L175.168 525.71V530.683L176.7 532.71L177.473 533.717L190.18 534.246L190.167 534.259L190.753 535.593L190.765 535.618L191.613 537.57Z" fill="#03DAEE" fill-opacity="0.3" stroke="#03DAEE" stroke-width="1.5" stroke-miterlimit="8"/>
<path fill-rule="evenodd" clip-rule="evenodd" d="M206.325 490.419L201.342 495.04L201.081 495.292L200.894 495.468L195.798 500.34L195.935 505.225V515.512L199.025 519.251L199.112 519.364L199.386 524.728V524.778L196.807 524.891L195.437 528.253L195.4 528.341L194.789 529.575L190.18 534.246L177.472 533.717L176.7 532.71L175.168 530.683V525.71L174.395 525.181L171.131 522.953L165.214 525.307L159.296 527.372L155.995 525.785L154.699 525.068L154.973 521.857L161.028 519.918V517.161L159.321 515.537L159.296 515.512L159.869 511.923L154.973 506.963H154.687L150.065 507.24L149.89 506.963L148.981 505.515L148.42 504.608L148.333 504.483L139.7 510.161L139.102 510.538L136.51 507.781L136.809 507.265L136.872 507.152L137.906 505.364L134.106 502.947L133.906 502.821L139.675 498.691L146.028 497.583L150.937 491.792L154.948 488.203L154.998 488.166L155.26 487.926L155.285 487.939L160.741 490.684L165.351 489.865L167.381 478.824L169.101 477.728H178.918L179.129 477.59L179.167 477.577L182.182 475.638L182.381 475.512L182.954 466.963L184.76 460.832L191.538 461.94L191.625 461.965L191.899 462.003V462.028H191.911L192.26 463.552V463.577L192.472 464.483L192.609 464.685L192.671 464.76L195.063 467.769L195.624 467.732L195.661 467.719L198.128 467.53L198.24 467.517L199.399 470.552L196.92 471.521L196.907 471.534L194.49 472.478L193.979 477.892L193.917 478.547L193.842 478.622L190.74 481.581L191.077 483.092L191.089 483.129L191.612 485.446L195.935 484.892L204.992 486.982V486.995L205.453 487.095L205.565 488.468L205.578 488.518L206.325 490.419Z" fill="#03DAEE" fill-opacity="0.3" stroke="#03DAEE" stroke-width="1.5" stroke-miterlimit="8"/>
<path fill-rule="evenodd" clip-rule="evenodd" d="M128.997 501.171L128.948 501.184L124.101 503.098L120.526 500.164L118.682 501.675L119.766 505.855L119.704 505.918L119.766 506.132L118.595 507.139H118.582L118.57 507.152L114.795 510.388L114.284 510.816L111.12 509.443L110.534 522.134L80.2489 519.1L80.8219 513.308L71.5905 500.894C71.4908 490.13 71.4036 479.378 71.304 468.626L77.9441 471.937L85.1449 471.106L88.82 463.829L88.9072 463.652L93.5043 464.861L93.579 464.874L93.6787 464.899L95.2484 465.314L96.245 466.196L98.9983 468.626L103.471 468.072L106.212 466.145L108.803 470.275H118.333L119.766 472.478V478.27L121.797 483.243L126.693 488.48L126.917 491.124L126.929 491.213L127.278 495.38L128.188 498.427L128.2 498.477V498.502L128.86 500.693L128.997 501.171Z" fill="#03DAEE" stroke="#03DAEE" stroke-width="1.5" stroke-miterlimit="8"/>
<path fill-rule="evenodd" clip-rule="evenodd" d="M160.168 432.77L159.832 436.358L159.819 436.572L159.583 439.115L158.524 439.505L153.528 441.318L146.888 449.036L146.851 449.024L145.58 448.734L144.583 448.495L143.724 450.975L142.852 454.563L142.378 454.979L139.675 457.321L139.774 457.497L139.749 457.522L140.186 458.29L141.12 460.078H144.583L145.555 458.894L146.601 457.598L146.776 457.812L148.807 460.242L148.894 460.38L148.395 462.306L148.047 463.654L147.772 463.893L147.76 463.931L144.508 467.04L133.695 467.657L133.52 467.506L132.885 466.952L131.602 465.315L123.816 465.869L123.766 465.97L123.305 466.008L122.682 468.249L122.47 469.03L124.102 471.107L120.066 473.864L119.854 473.436L119.767 473.247V472.479L118.334 470.276H108.804L106.212 466.146L103.472 468.073L98.9991 468.627L96.2458 466.197L95.2492 465.315L93.6795 464.9L93.5798 464.875L93.5051 464.862L88.908 463.654L88.8208 463.83L88.036 463.654L87.7494 457.321L79.3776 460.632L74.7681 425.593L69 415.949L71.5913 411.53L70.1461 400.224L73.4725 397.303L74.7058 398.637L74.7556 398.688L74.793 398.738L76.3503 400.45L76.4998 402.628L76.5621 403.548L76.724 403.535L85.4322 403.132V407.06L83.2645 409.125L83.3019 409.175L83.1275 409.326L87.1141 413.494L87.2013 413.595L89.1074 415.748H91.4868V417.195L92.0225 417.221H92.035L92.0724 417.321L109.962 418.152L120.066 418.429L121.498 415.949L124.102 411.807L126.419 412.071L126.469 412.084L131.315 412.638V418.429L133.882 421.489L134.779 422.559L134.953 422.571L154.637 424.019L157.452 426.701L157.54 426.676L157.764 426.89H157.776L158.437 427.532L160.168 432.77Z" fill="#03DAEE" fill-opacity="0.3" stroke="#03DAEE" stroke-width="1.5" stroke-miterlimit="8"/>
<path fill-rule="evenodd" clip-rule="evenodd" d="M187.14 449.451L186.991 449.615L186.928 449.678L184.536 452.145L184.761 460.833L182.954 466.964L182.381 475.513L182.182 475.639L179.167 477.578L179.129 477.59L178.918 477.729H169.101L167.381 478.824L165.351 489.866L160.741 490.684L155.285 487.94L155.26 487.927L154.998 488.166L154.948 488.204L150.937 491.792L146.028 497.584L139.675 498.692L133.907 502.821L134.106 502.947L130.443 503.098L129.82 502.028L129.808 502.016L128.998 500.618L128.861 500.694L128.201 498.503V498.478L128.188 498.427L127.279 495.381L126.93 491.213L126.918 491.125L126.693 488.481L121.797 483.244L119.767 478.27V475.274C119.792 474.67 119.816 474.053 119.841 473.448L119.854 473.436L120.066 473.864L124.102 471.106L122.47 469.029L122.682 468.248L123.305 466.007L123.766 465.97L123.815 465.869L131.602 465.315L132.885 466.952L133.52 467.506L133.695 467.657L144.508 467.04L147.76 463.93L147.772 463.892L148.047 463.653L148.395 462.306L148.894 460.38L148.906 460.354L148.806 460.241L146.776 457.811L146.601 457.597L145.555 458.894L144.583 460.077H141.195L140.185 458.29L139.774 457.496L139.675 457.32L142.378 454.978L142.851 454.563L143.724 450.975L144.583 448.494L145.58 448.734L146.851 449.023L146.888 449.036L153.528 441.318L158.524 439.505L159.657 439.115L161.925 439.744L161.95 439.757L165.276 440.978L176.065 436.546L176.214 436.483L176.326 436.445L176.974 436.219L177.572 438.498L177.622 438.699L175.018 440.6V440.613L174.807 440.764L175.89 443.874L177.448 443.446L178.918 443.043L182.593 442.426L184.636 445.586L184.648 445.599L187.09 449.376L187.14 449.451Z" fill="#03DAEE" fill-opacity="0.3" stroke="#03DAEE" stroke-width="1.5" stroke-miterlimit="8"/>
<path fill-rule="evenodd" clip-rule="evenodd" d="M315.234 302.183V309.624L315.209 309.649L312.381 312.772L309.603 315.831L306.152 325.765L300.521 339.413L300.957 343.139L297.93 347.269V352.645L293.158 353.891L290.131 350.58L283.927 352.053L283.204 352.23V355.956L290.131 365.059L287.103 371.682L286.767 374.703L285.808 383.265L271.531 392.367L259.409 393.601L249.032 396.787L249.056 397.013V397.026L249.343 399.494L249.355 399.607L250.178 406.733L249.293 408.13L249.256 408.193L247.898 410.8L239.925 411.857L239.837 411.87L238.592 412.033L240.759 421.136L239.788 425.404L239.775 425.467H239.713L239.75 425.581L241.233 431.045L238.729 432.707L238.156 433.122L237.421 431.586L236.86 430.44H234.48L230.855 438.184L229.871 437.718L228.264 436.71L226.632 435.691L226.482 435.602L222.384 436.899L219.992 437.667H216.354L216.317 436.95V433.324L216.13 433.349V433.324L215.32 433.45L210.511 434.155L199.859 437.478L199.249 437.667L194.278 438.284L194.253 438.297L194.191 438.335L191.027 440.148L191.002 440.248L190.802 440.362L190.005 443.572L189.893 443.937L189.731 444.491L187.09 449.376L184.648 445.599L184.636 445.587L182.592 442.426L178.917 443.043L177.447 443.446L175.89 443.874L174.806 440.765L175.018 440.613V440.601L177.622 438.7L177.572 438.498L176.974 436.219L176.326 436.446L176.214 436.484L176.064 436.547L165.276 440.979L161.949 439.757L161.925 439.745L159.657 439.115L158.523 439.505L159.582 439.115L159.819 436.572L159.832 436.358L160.168 432.77L158.436 427.532L157.776 426.89H157.764L157.539 426.676L161.987 425.052L161.775 421.325L162.859 420.293L163.444 419.739L164.217 420.066L164.242 420.079L166.858 421.174L167.232 421.338L170.658 419.437L170.683 419.424L171.941 418.845L172.327 416.616V416.604L172.589 415.131L181.671 415.534L183.178 412.436C183.253 410.233 183.539 407.4 183.614 405.197L176.5 393.992L176.363 393.79L173.336 389.006L173.324 388.981L172.85 387.646L169.748 383.831L168.303 381.792V379.425L168.664 376.655L173.511 373.394L173.535 373.381L173.884 373.155L178.631 372.79H178.643L184.748 372.55L187.003 369.012L189.581 368.824H192.534L197.281 364.278L197.069 359.935L193.182 356.221L192.821 356.107H192.808L179.553 351.877L178.656 351.185L178.469 351.046L178.257 347.118L175.666 345.884L175.591 345.985L174.333 347.47L174.295 347.508L173.884 348.138L172.589 347.936L170.421 342.56L167.182 340.08L160.978 343.328L160.965 343.341L155.11 348.931L154.948 348.881L152.282 348.024L152.232 348.012L147.324 346.438V346.425L139.537 317.896L138.242 286.873L158.137 291.003L182.381 283.562L183.676 257.916L195.362 252.942L200.557 255.838L234.306 235.152L237.819 244.243L239.996 249.882L240.297 250.664L240.372 250.878L241.854 252.3L252.045 262.045L251.622 275.655L261.264 283.763L269.15 290.386L282.343 284.796L296.62 286.042L301.379 290.524L312.205 294.113L314.373 299.904L315.234 302.183Z" fill="#03DAEE" fill-opacity="0.3"/>
<path d="M249.056 397.026V397.013L249.032 396.787L259.409 393.601L271.531 392.367L285.808 383.265L286.767 374.703L287.103 371.682L290.131 365.059L283.204 355.956V352.23L283.927 352.053L290.131 350.58L293.158 353.891L297.93 352.645V347.269L300.957 343.139L300.521 339.413L306.152 325.765L309.603 315.831L312.381 312.772L315.209 309.649L315.234 309.624V302.183L314.373 299.904L312.205 294.113L301.379 290.524L296.62 286.042L282.343 284.796L269.15 290.386L261.264 283.763L251.622 275.655L252.045 262.045L241.854 252.3L240.372 250.878L240.297 250.664L239.996 249.882L237.819 244.243L234.306 235.152L200.557 255.838L195.362 252.942L183.676 257.916L182.381 283.562L158.137 291.003L138.242 286.873L139.537 317.896L147.324 346.425V346.438L152.232 348.012L152.282 348.024L154.948 348.881L155.11 348.931L160.965 343.341L160.978 343.328L167.182 340.08M249.056 397.026L249.343 399.494L249.355 399.607L250.178 406.733L249.293 408.13L249.256 408.193L247.898 410.8L239.925 411.857L239.837 411.87L238.592 412.033L240.759 421.136L239.788 425.404L239.775 425.467H239.713L239.75 425.581L241.233 431.045L238.729 432.707L238.156 433.122L237.421 431.586L236.86 430.44H234.48L230.855 438.184L229.871 437.718L228.264 436.71L226.632 435.691L226.482 435.602L222.384 436.899L219.992 437.667H216.354L216.317 436.95V433.324L216.13 433.349V433.324L215.32 433.45L210.511 434.155L199.859 437.478L199.249 437.667L194.278 438.284L194.253 438.297L194.191 438.335L191.027 440.148L191.002 440.248L190.802 440.362L190.005 443.572L189.893 443.937L189.731 444.491L187.09 449.376L184.648 445.599L184.636 445.587L182.592 442.426L178.917 443.043L177.447 443.446L175.89 443.874L174.806 440.765L175.018 440.613V440.601L177.622 438.7L177.572 438.498L176.974 436.219L176.326 436.446L176.214 436.484L176.064 436.547L165.276 440.979L161.949 439.757L161.925 439.745L159.657 439.115L158.523 439.505L159.582 439.115L159.819 436.572L159.832 436.358L160.168 432.77L158.436 427.532L157.776 426.89H157.764L157.539 426.676L161.987 425.052L161.775 421.325L162.859 420.293L163.444 419.739L164.217 420.066L164.242 420.079L166.858 421.174L167.232 421.338L170.658 419.437L170.683 419.424L171.941 418.845L172.327 416.616V416.604L172.589 415.131L181.671 415.534L183.178 412.436C183.253 410.233 183.539 407.4 183.614 405.197L176.5 393.992L176.363 393.79L173.336 389.006L173.324 388.981L172.85 387.646L169.748 383.831L168.303 381.792V379.425L168.664 376.655L173.511 373.394L173.535 373.381L173.884 373.155L178.631 372.79H178.643L184.748 372.55L187.003 369.012L189.581 368.824H192.534L197.281 364.278L197.069 359.935L193.182 356.221L192.821 356.107H192.808L179.553 351.877L178.656 351.185L178.469 351.046L178.257 347.118L175.666 345.884L175.591 345.985L174.333 347.47L174.295 347.508L173.884 348.138L172.589 347.936L170.421 342.56L167.182 340.08M249.056 397.026L236.86 396.787V392.367H229.871L228.264 385.5V381.792L233 379.425V374.703L228.264 371.682L226.632 365.059L222.384 356.221L226.482 348.931L219.992 343.341V336.5L206.5 339.413L179.553 331L167.182 340.08" stroke="#03DAEE" stroke-width="1.5" stroke-miterlimit="8"/>
<path fill-rule="evenodd" clip-rule="evenodd" d="M197.28 364.279L192.534 368.824H187.127L187.003 369.013L186.853 369.025L184.698 372.324L178.643 372.79H178.631L174.146 372.966L173.535 373.381L173.51 373.394L168.689 376.466L168.664 376.655L168.303 376.894V379.425L168.041 381.427L168.303 381.792V382.056L169.748 383.831L172.589 387.835L173.324 388.981L173.336 389.006L173.498 389.497L176.363 393.79L176.5 393.992L183.614 405.197C183.539 407.4 183.253 410.233 183.178 412.437L181.67 415.534L172.589 415.131L172.327 416.604V416.616L171.941 418.845L170.682 419.424L170.658 419.437L167.232 421.338L166.858 421.174L164.242 420.079L164.217 420.066L163.507 419.676L163.444 419.739L162.859 420.293L161.775 421.325L161.987 425.052L157.539 426.676L157.452 426.701L154.636 424.02L134.953 422.572L133.881 421.489L131.315 418.43V412.638L126.469 412.084L126.419 412.071L124.102 411.807L121.498 415.949L120.065 418.43L109.962 418.153L92.0719 417.322L92.0345 417.221H92.0221L91.4864 417.196V415.748H89.817L89.1941 415.672L87.2008 413.595L87.1136 413.494L83.3014 409.176L83.264 409.125L85.4317 407.06V403.132L76.7235 403.535L76.5616 403.548L76.4993 402.629L76.3498 400.451L74.7925 398.738L74.7552 398.688L74.7053 398.638L73.472 397.303L73.3225 397.139L75.702 392.179L76.5616 388.251L70.7312 379.362L103.16 365.915L105.327 373.57L110.734 373.155L117.001 366.96L119.168 357.027L126.955 360.753L126.519 356.41L129.982 355.579H134.741L137.768 351.449L142.527 350.417L147.324 346.426V346.438L152.232 348.012L152.282 348.025L154.948 348.881L155.11 348.931L160.965 343.341L160.978 343.328L167.182 340.08L170.421 342.56L172.589 347.936L173.884 348.138L174.295 347.508L174.333 347.471L175.591 345.985L175.666 345.884L178.257 347.118L178.469 351.046L178.656 351.185L179.553 351.877L192.808 356.108H192.82L193.182 356.221L197.069 359.935L197.28 364.279Z" fill="#03DAEE" stroke="#03DAEE" stroke-width="1.5" stroke-miterlimit="8"/>
</svg>
