<svg width="1919" height="1148" viewBox="0 0 1919 1148" fill="none" xmlns="http://www.w3.org/2000/svg">
<g opacity="0.2">
<path d="M1723.37 1074.81L1702.14 980.676L1919 1027.74L1917.29 991.288L1692.1 930.325L1601.09 438.422L1584.05 180.961L1570.67 168.896L1549.45 173.729L1552.68 219.577L1537.46 224.812L1538.38 192.635L1522.68 177.746L1503.3 184.187L1517.95 440.608L1487.85 866.007L1 455.107V608.073L1479.51 934.792L1478.48 1073.27L1443.24 1082.03V1148H1752.14L1747.75 1079.66L1723.37 1074.81ZM1564.47 426.747H1549.94L1548.8 371.362L1560.14 370.027L1564.47 426.747ZM1558.94 351.179L1546.31 353.543L1545.1 326.234L1557.55 323.221L1558.94 351.179ZM1555.13 304.716L1541.98 307.576V285.124L1555.13 282.265V304.716ZM1539.91 243.518L1552.19 240.954L1553.23 264.032L1539.91 267.045V243.518ZM1548.81 459.337L1568.8 457.529L1654.63 917.315L1532.12 878.072L1548.81 459.337ZM1516.68 1075.21L1521.6 944.115L1662.47 974.638L1680.47 1075.21H1516.68Z" fill="#000B34"/>
<path d="M1431.79 850.551C1431.49 850.469 1502.51 658.46 1502.51 658.46" stroke="#000B34" stroke-miterlimit="10"/>
<path d="M1505.7 613.462L1425.46 848.791" stroke="#000B34" stroke-miterlimit="10"/>
<path d="M1329.42 822.251L1517.76 443.007" stroke="#000B34" stroke-miterlimit="10"/>
<path d="M1318.82 819.32L1517.76 423.734" stroke="#000B34" stroke-miterlimit="10"/>
<path d="M1152.34 773.306L1516.24 411.055" stroke="#000B34" stroke-miterlimit="10"/>
<path d="M1134.17 768.284L1515.76 402.605" stroke="#000B34" stroke-miterlimit="10"/>
<path d="M1051.15 745.336L1514.03 372.45" stroke="#000B34" stroke-miterlimit="10"/>
<path d="M1513.45 362.181L1046.13 743.953" stroke="#000B34" stroke-miterlimit="10"/>
<path d="M680.98 643.039L1514.03 323.269" stroke="#000B34" stroke-miterlimit="10"/>
<path d="M621.182 626.508L1510.54 311.204" stroke="#000B34" stroke-miterlimit="10"/>
<path d="M1 411.055L1508.02 266.998" stroke="#000B34" stroke-miterlimit="10"/>
<path d="M1507.75 262.306L1 372.449" stroke="#000B34" stroke-miterlimit="10"/>
<path d="M11.8579 135.073L1505.77 227.565" stroke="#000B34" stroke-miterlimit="10"/>
<path d="M1505.77 217.97L13.8447 102.5" stroke="#000B34" stroke-miterlimit="10"/>
<path d="M1623.38 558.893L1792.33 957.457L1634.97 621.521" stroke="#000B34" stroke-miterlimit="10"/>
<path d="M1617.5 527.094L1799.84 959.477" stroke="#000B34" stroke-miterlimit="10"/>
<path d="M1609.38 483.148L1807.58 959.478" stroke="#000B34" stroke-miterlimit="10"/>
<path d="M1600.71 432.49L1819.88 964.913" stroke="#000B34" stroke-miterlimit="10"/>
<path d="M1600.71 423.734L1890.86 984.127" stroke="#000B34" stroke-miterlimit="10"/>
<path d="M1596.05 362.181L1895.82 985.474L1600.71 398.387" stroke="#000B34" stroke-miterlimit="10"/>
<path d="M1590.26 275.01L1895.82 985.474L1593.38 323.269" stroke="#000B34" stroke-miterlimit="10"/>
<path d="M1588.01 240.895L1895.82 985.462" stroke="#000B34" stroke-miterlimit="10"/>
</g>
</svg>
