<svg width="19" height="9" viewBox="0 0 19 9" fill="none" xmlns="http://www.w3.org/2000/svg">
<path fill-rule="evenodd" clip-rule="evenodd" d="M0.997559 4.5C0.997559 4.22386 1.22142 4 1.49756 4L17.4976 4C17.7737 4 17.9976 4.22386 17.9976 4.5C17.9976 4.77614 17.7737 5 17.4976 5L1.49756 5C1.22142 5 0.997559 4.77614 0.997559 4.5Z" fill="white"/>
<path fill-rule="evenodd" clip-rule="evenodd" d="M13.644 0.646447C13.8393 0.451184 14.1558 0.451184 14.3511 0.646447L18.2047 4.5L14.3511 8.35355C14.1558 8.54882 13.8393 8.54882 13.644 8.35355C13.4487 8.15829 13.4487 7.84171 13.644 7.64645L16.7905 4.5L13.644 1.35355C13.4487 1.15829 13.4487 0.841709 13.644 0.646447Z" fill="white"/>
</svg>
