<svg width="16" height="16" viewBox="0 0 16 16" fill="none" xmlns="http://www.w3.org/2000/svg">
<path fill-rule="evenodd" clip-rule="evenodd" d="M6.0053 2.00221C4.94367 2.00221 3.92552 2.42394 3.17483 3.17462C2.42415 3.92531 2.00242 4.94346 2.00242 6.00509C2.00242 7.06672 2.42415 8.08487 3.17483 8.83556C3.92552 9.58624 4.94367 10.008 6.0053 10.008C7.06693 10.008 8.08508 9.58624 8.83576 8.83556C9.58645 8.08487 10.0082 7.06672 10.0082 6.00509C10.0082 4.94346 9.58645 3.92531 8.83576 3.17462C8.08508 2.42394 7.06693 2.00221 6.0053 2.00221ZM0.000976676 6.00509C0.000856086 5.06011 0.223779 4.12845 0.651616 3.28587C1.07945 2.4433 1.70012 1.7136 2.46315 1.15612C3.22617 0.598651 4.11 0.229143 5.04275 0.0776552C5.97551 -0.073833 6.93085 -0.00302467 7.83108 0.284321C8.73131 0.571667 9.551 1.06744 10.2235 1.73131C10.896 2.39518 11.4023 3.20841 11.7013 4.10485C12.0002 5.0013 12.0833 5.95565 11.9439 6.89028C11.8045 7.82491 11.4464 8.71344 10.8988 9.4836L15.7193 14.3041C15.9016 14.4928 16.0025 14.7456 16.0002 15.008C15.9979 15.2704 15.8926 15.5214 15.7071 15.7069C15.5216 15.8924 15.2706 15.9977 15.0082 16C14.7458 16.0022 14.493 15.9014 14.3043 15.7191L9.48481 10.8996C8.58652 11.5384 7.52975 11.9175 6.43028 11.9955C5.33082 12.0735 4.23109 11.8474 3.25162 11.3419C2.27214 10.8364 1.45071 10.071 0.877331 9.12969C0.303955 8.18834 0.000762357 7.10732 0.000976676 6.00509Z" fill="white"/>
</svg>
