<svg width="32" height="19" viewBox="0 0 32 19" fill="none" xmlns="http://www.w3.org/2000/svg">
<path fill-rule="evenodd" clip-rule="evenodd" d="M17.5763 18.9664C17.5763 18.9664 18.2183 18.8389 18.4753 18.5844C18.7321 18.3299 18.7321 17.6935 18.7321 17.6935C18.7321 17.6935 18.7321 15.0204 19.8875 14.6385C21.0432 14.2565 22.5839 17.1842 24.1249 18.3299C25.2803 19.2209 26.3075 18.9664 26.3075 18.9664H30.5446C30.5446 18.9664 32.7275 18.8389 31.7003 16.9297C31.5718 16.8026 31.0583 15.5294 28.4905 13.1111C25.7941 10.5651 26.179 10.947 29.3892 6.49201C31.3151 3.81889 32.2138 2.16411 31.957 1.40027C31.7003 0.763844 30.2879 0.891261 30.2879 0.891261H25.4088C25.4088 0.891261 25.0236 0.891261 24.7668 1.01835C24.5098 1.14577 24.3816 1.65477 24.3816 1.65477C24.3816 1.65477 23.7396 3.69147 22.7124 5.47366C20.5294 9.29222 19.7593 9.41963 19.374 9.16513C18.6035 8.65579 18.7321 7.00102 18.7321 5.85558C18.7321 2.16411 19.2455 0.636426 17.7048 0.254835C17.1911 0.127418 16.8061 0 15.3937 0C13.7245 0 12.1835 0 11.4133 0.381922C10.8995 0.763844 10.5143 1.40027 10.7714 1.40027C11.0281 1.40027 11.7986 1.65477 12.1835 2.16411C12.6973 2.80054 12.6973 4.45531 12.6973 4.45531C12.6973 4.45531 12.954 8.78321 12.0553 9.29222C11.4133 9.67414 10.5143 8.91029 8.58839 5.47366C7.56117 3.69147 6.79101 1.65477 6.79101 1.65477C6.79101 1.65477 6.66248 1.40027 6.40576 1.14577C6.02051 0.891261 5.63526 0.891261 5.63526 0.891261H1.01294C1.01294 0.891261 0.370968 0.891261 0.114247 1.27285C-0.142808 1.52769 0.114247 2.16411 0.114247 2.16411C0.114247 2.16411 3.70935 10.8199 7.6897 15.1478C11.4133 19.2209 15.6504 18.9664 15.6504 18.9664H17.5763Z" fill="#4180DF"/>
</svg>
