<svg width="32" height="23" viewBox="0 0 32 23" fill="none" xmlns="http://www.w3.org/2000/svg">
<rect x="9" y="6" width="14" height="12" fill="white"/>
<path fill-rule="evenodd" clip-rule="evenodd" d="M12.696 15.7414L12.695 6.55347L21.341 11.1633L12.696 15.7414ZM31.68 4.96135C31.68 4.96135 31.367 2.70805 30.408 1.71578C29.191 0.412849 27.827 0.406718 27.202 0.331097C22.724 0 16.007 0 16.007 0H15.993C15.993 0 9.276 0 4.798 0.331097C4.172 0.406718 2.809 0.412849 1.591 1.71578C0.632 2.70805 0.32 4.96135 0.32 4.96135C0.32 4.96135 0 7.60808 0 10.2538V12.735C0 15.3817 0.32 18.0274 0.32 18.0274C0.32 18.0274 0.632 20.2807 1.591 21.273C2.809 22.5759 4.408 22.535 5.12 22.6709C7.68 22.9223 16 23 16 23C16 23 22.724 22.9898 27.202 22.6587C27.827 22.582 29.191 22.5759 30.408 21.273C31.367 20.2807 31.68 18.0274 31.68 18.0274C31.68 18.0274 32 15.3817 32 12.735V10.2538C32 7.60808 31.68 4.96135 31.68 4.96135V4.96135Z" fill="#FF4242"/>
</svg>
